<svg width="52" height="37" viewBox="0 0 52 37" fill="none" xmlns="http://www.w3.org/2000/svg">
<rect y="0.5" width="52" height="36" rx="18" fill="url(#paint0_linear_360_3097)"/>
<path d="M34.5692 9.93356C34.3749 9.74015 34.1311 9.60418 33.8648 9.5406C33.5984 9.47702 33.3197 9.48829 33.0593 9.57317L18.0323 14.598C17.7536 14.6866 17.5073 14.8559 17.3246 15.0847C17.1418 15.3134 17.0308 15.5913 17.0055 15.8833C16.9803 16.1753 17.0419 16.4682 17.1826 16.7251C17.3233 16.982 17.5367 17.1914 17.7961 17.3267L24.0308 20.4158L27.1122 26.6865C27.236 26.932 27.4256 27.1381 27.6596 27.2817C27.8936 27.4254 28.1628 27.501 28.4372 27.5H28.5399C28.8338 27.4783 29.1143 27.3685 29.3451 27.1849C29.5759 27.0012 29.7463 26.7523 29.8341 26.4703L34.9184 11.4472C35.0092 11.1876 35.0246 10.9076 34.9627 10.6396C34.9009 10.3716 34.7644 10.1268 34.5692 9.93356ZM18.6691 16.019L31.7856 11.6325L24.5033 18.933L18.6691 16.019ZM28.5091 25.8731L25.592 20.0245L32.8744 12.724L28.5091 25.8731Z" fill="#FAFAFA"/>
<defs>
<linearGradient id="paint0_linear_360_3097" x1="3.32222" y1="3.51796" x2="39.1231" y2="47.0822" gradientUnits="userSpaceOnUse">
<stop stop-color="#7117EA"/>
<stop offset="1" stop-color="#EA6060"/>
</linearGradient>
</defs>
</svg>
