<svg width="current" height="current" viewBox="0 0 24 24" fill="none"
    xmlns="http://www.w3.org/2000/svg">
    <path fill-rule="evenodd" clip-rule="evenodd" d="M13.8 9.80002C13.8 8.2444 12.7263 7.40002 11.9 7.40002C11.0737 7.40002 10 8.2444 10 9.80002C10 11.3557 11.0737 12.2 11.9 12.2C12.7263 12.2 13.8 11.3557 13.8 9.80002ZM15.8 9.80002C15.8 7.37342 14.0508 5.40002 11.9 5.40002C9.74915 5.40002 8 7.37342 8 9.80002C8 12.2266 9.74915 14.2 11.9 14.2C14.0508 14.2 15.8 12.2266 15.8 9.80002Z" fill="current"/>
    <path fill-rule="evenodd" clip-rule="evenodd" d="M17.9999 9.39593H17.9999C17.9999 5.77534 15.2179 3 12 3C8.78106 3 6.0001 5.77645 6.0001 9.38894V9.39796H6.00008C5.98884 11.8896 7.17795 14.4167 8.80443 16.6648C9.86042 18.1243 11.0337 19.3738 12.0006 20.3029C12.9675 19.3745 14.1405 18.1257 15.1963 16.667C16.8226 14.4199 18.0112 11.8943 17.9999 9.40496L17.9999 9.39593ZM12 23C9.85203 21.1712 3.9721 15.5982 4.0001 9.38894C4.0001 4.76244 7.58805 1 12 1C16.4119 1 19.9999 4.76244 19.9999 9.39593C20.0279 15.601 14.1493 21.1726 12 23Z" fill="current"/>
</svg>
