<svg width="current" height="current" viewBox="0 0 24 24" fill="none"
    xmlns="http://www.w3.org/2000/svg">
    <path fill-rule="evenodd" clip-rule="evenodd" d="M15.3765 11.2684C15.564 11.4559 15.6693 11.7102 15.6693 11.9754C15.6693 12.2405 15.564 12.4948 15.3765 12.6824L9.71953 18.3394C9.62728 18.4349 9.51693 18.5111 9.39493 18.5635C9.27293 18.6159 9.14171 18.6435 9.00893 18.6446C8.87615 18.6458 8.74447 18.6205 8.62157 18.5702C8.49868 18.5199 8.38702 18.4457 8.29313 18.3518C8.19924 18.2579 8.12498 18.1462 8.0747 18.0233C8.02442 17.9004 7.99912 17.7687 8.00027 17.636C8.00143 17.5032 8.02901 17.372 8.08142 17.25C8.13383 17.128 8.21001 17.0176 8.30552 16.9254L13.2555 11.9754L8.30552 7.02536C8.12337 6.83676 8.02257 6.58416 8.02485 6.32196C8.02713 6.05977 8.1323 5.80895 8.31771 5.62355C8.50311 5.43814 8.75393 5.33297 9.01612 5.33069C9.27832 5.32841 9.53092 5.42921 9.71953 5.61136L15.3765 11.2684Z" fill="current"/>
</svg>
