<svg width="24" height="24" viewBox="0 0 24 24" fill="none" xmlns="http://www.w3.org/2000/svg">
<path fill-rule="evenodd" clip-rule="evenodd" d="M6.52282 17.3129C5.8995 17.3129 5.39419 17.8231 5.39419 18.4525C5.39419 19.0819 5.8995 19.5922 6.52282 19.5922C7.14615 19.5922 7.65145 19.0819 7.65145 18.4525C7.65145 17.8231 7.14615 17.3129 6.52282 17.3129ZM4 18.4525C4 17.0456 5.12951 15.905 6.52282 15.905C7.91614 15.905 9.04564 17.0456 9.04564 18.4525C9.04564 19.8595 7.91614 21 6.52282 21C5.12951 21 4 19.8595 4 18.4525Z" fill="url(#paint0_linear_1024_3604)"/>
<path fill-rule="evenodd" clip-rule="evenodd" d="M16.5643 17.3129C15.941 17.3129 15.4357 17.8231 15.4357 18.4525C15.4357 19.0819 15.941 19.5922 16.5643 19.5922C17.1877 19.5922 17.693 19.0819 17.693 18.4525C17.693 17.8231 17.1877 17.3129 16.5643 17.3129ZM14.0415 18.4525C14.0415 17.0456 15.171 15.905 16.5643 15.905C17.9576 15.905 19.0871 17.0456 19.0871 18.4525C19.0871 19.8595 17.9576 21 16.5643 21C15.171 21 14.0415 19.8595 14.0415 18.4525Z" fill="url(#paint1_linear_1024_3604)"/>
<path fill-rule="evenodd" clip-rule="evenodd" d="M4 3.70391C4 3.31515 4.3121 3 4.6971 3H6.52282C6.90782 3 7.21992 3.31515 7.21992 3.70391V15.905H16.5643C16.9493 15.905 17.2614 16.2202 17.2614 16.6089C17.2614 16.9977 16.9493 17.3128 16.5643 17.3128H6.52282C6.13783 17.3128 5.82573 16.9977 5.82573 16.6089V4.40782H4.6971C4.3121 4.40782 4 4.09267 4 3.70391Z" fill="url(#paint2_linear_1024_3604)"/>
<path fill-rule="evenodd" clip-rule="evenodd" d="M5.82748 5.4973C5.85491 5.10952 6.18846 4.81763 6.57247 4.84532L19.3526 5.76711C19.5455 5.78103 19.724 5.87526 19.8455 6.02728C19.9669 6.1793 20.0203 6.37543 19.993 6.56878L19.0801 13.0213C19.0311 13.3681 18.7369 13.6257 18.39 13.6257H6.52281C6.13781 13.6257 5.82571 13.3105 5.82571 12.9217C5.82571 12.533 6.13781 12.2178 6.52281 12.2178H17.7854L18.507 7.11753L6.47314 6.24957C6.08913 6.22187 5.80006 5.88507 5.82748 5.4973Z" fill="url(#paint3_linear_1024_3604)"/>
<defs>
<linearGradient id="paint0_linear_1024_3604" x1="4.32236" y1="16.3322" x2="9.40342" y2="20.5712" gradientUnits="userSpaceOnUse">
<stop stop-color="#7117EA"/>
<stop offset="1" stop-color="#EA6060"/>
</linearGradient>
<linearGradient id="paint1_linear_1024_3604" x1="14.3639" y1="16.3322" x2="19.4449" y2="20.5712" gradientUnits="userSpaceOnUse">
<stop stop-color="#7117EA"/>
<stop offset="1" stop-color="#EA6060"/>
</linearGradient>
<linearGradient id="paint2_linear_1024_3604" x1="4.84726" y1="4.19988" x2="18.9218" y2="15.1857" gradientUnits="userSpaceOnUse">
<stop stop-color="#7117EA"/>
<stop offset="1" stop-color="#EA6060"/>
</linearGradient>
<linearGradient id="paint3_linear_1024_3604" x1="6.73126" y1="5.57973" x2="15.2293" y2="17.1343" gradientUnits="userSpaceOnUse">
<stop stop-color="#7117EA"/>
<stop offset="1" stop-color="#EA6060"/>
</linearGradient>
</defs>
</svg>
