<svg width="current" height="current" viewBox="0 0 24 24" fill="none"
    xmlns="http://www.w3.org/2000/svg">
    <path d="M11.7241 4.21959C11.8675 4.07899 12.0619 4 12.2647 4C12.4675 4 12.6619 4.07899 12.8054 4.21959L15.0995 6.46962C15.2428 6.61026 15.3234 6.801 15.3234 6.99987C15.3234 7.19875 15.2428 7.38948 15.0995 7.53013L12.8054 9.78015C12.6611 9.91677 12.468 9.99237 12.2675 9.99066C12.067 9.98895 11.8752 9.91007 11.7334 9.77102C11.5916 9.63196 11.5112 9.44385 11.5094 9.2472C11.5077 9.05055 11.5848 8.86109 11.7241 8.71964L12.7128 7.74988H11.5C8.78682 7.74988 6.52941 9.9639 6.52941 12.6249C6.52941 15.286 8.78682 17.5 11.5 17.5C14.2132 17.5 16.4706 15.286 16.4706 12.6249C16.4706 12.426 16.5512 12.2352 16.6946 12.0946C16.838 11.9539 17.0325 11.8749 17.2353 11.8749C17.4381 11.8749 17.6326 11.9539 17.776 12.0946C17.9194 12.2352 18 12.426 18 12.6249C18 16.114 15.0574 19 11.5 19C7.94259 19 5 16.114 5 12.6249C5 9.13589 7.94259 6.24986 11.5 6.24986H12.7128L11.7241 5.2801C11.5807 5.13946 11.5002 4.94872 11.5002 4.74985C11.5002 4.55097 11.5807 4.36024 11.7241 4.21959Z" fill="current"/>
</svg>