<svg width="current" height="current" viewBox="0 0 24 24" fill="none"
    xmlns="http://www.w3.org/2000/svg">
    <path d="M14.0317 2C14.1869 2 14.338 2.04801 14.4634 2.13709C14.5888 2.22617 14.682 2.35174 14.7295 2.49571L15.5357 4.93714C15.8743 5.09857 16.1983 5.28 16.5076 5.48429L19.0816 4.94429C19.2334 4.91271 19.3915 4.92889 19.5333 4.99051C19.675 5.05212 19.793 5.15599 19.8703 5.28714L21.902 8.71429C21.9795 8.84537 22.0124 8.99707 21.9958 9.14753C21.9792 9.29798 21.914 9.43941 21.8096 9.55143L20.0432 11.4514C20.069 11.8158 20.069 12.1814 20.0432 12.5457L21.8096 14.4486C21.914 14.5606 21.9792 14.702 21.9958 14.8525C22.0124 15.0029 21.9795 15.1546 21.902 15.2857L19.8703 18.7143C19.7928 18.8452 19.6747 18.9488 19.533 19.0101C19.3913 19.0715 19.2332 19.0874 19.0816 19.0557L16.5076 18.5157C16.1997 18.7186 15.8743 18.9014 15.5371 19.0629L14.7295 21.5043C14.682 21.6483 14.5888 21.7738 14.4634 21.8629C14.338 21.952 14.1869 22 14.0317 22H9.9683C9.81313 22 9.66196 21.952 9.53657 21.8629C9.41118 21.7738 9.31803 21.6483 9.27055 21.5043L8.46579 19.0643C8.12808 18.9033 7.80235 18.7196 7.49098 18.5143L4.91838 19.0557C4.76661 19.0873 4.60847 19.0711 4.46675 19.0095C4.32502 18.9479 4.20702 18.844 4.12974 18.7129L2.09805 15.2857C2.02046 15.1546 1.9876 15.0029 2.0042 14.8525C2.0208 14.702 2.086 14.5606 2.1904 14.4486L3.95677 12.5457C3.93118 12.1823 3.93118 11.8177 3.95677 11.4543L2.1904 9.55143C2.086 9.43941 2.0208 9.29798 2.0042 9.14753C1.9876 8.99707 2.02046 8.84537 2.09805 8.71429L4.12974 5.28571C4.20723 5.15482 4.32533 5.05125 4.46704 4.9899C4.60874 4.92855 4.76677 4.91258 4.91838 4.94429L7.49098 5.48571C7.80175 5.28143 8.12717 5.09714 8.46579 4.93571L9.27202 2.49571C9.31934 2.35221 9.41205 2.22697 9.53685 2.13793C9.66165 2.04889 9.81217 2.00061 9.96684 2H14.0302H14.0317ZM13.4952 3.42857H10.5048L9.6722 5.95286L9.11077 6.22C8.83477 6.35162 8.56834 6.5015 8.31334 6.66857L7.79442 7.01143L5.1324 6.45143L3.63721 8.97714L5.46222 10.9457L5.41824 11.5514C5.39718 11.8501 5.39718 12.1499 5.41824 12.4486L5.46222 13.0543L3.63428 15.0229L5.13093 17.5486L7.79295 16.99L8.31187 17.3314C8.56687 17.4985 8.83331 17.6484 9.1093 17.78L9.67073 18.0471L10.5048 20.5714H13.4981L14.3337 18.0457L14.8936 17.78C15.1693 17.6487 15.4353 17.4988 15.6896 17.3314L16.207 16.99L18.8705 17.5486L20.3657 15.0229L18.5392 13.0543L18.5832 12.4486C18.6044 12.1494 18.6044 11.8492 18.5832 11.55L18.5392 10.9443L20.3672 8.97714L18.8705 6.45143L16.207 7.00857L15.6896 6.66857C15.4353 6.50116 15.1693 6.35127 14.8936 6.22L14.3337 5.95429L13.4967 3.42857H13.4952ZM12 7.71429C13.1663 7.71429 14.2849 8.16582 15.1096 8.96954C15.9343 9.77327 16.3976 10.8634 16.3976 12C16.3976 13.1366 15.9343 14.2267 15.1096 15.0305C14.2849 15.8342 13.1663 16.2857 12 16.2857C10.8337 16.2857 9.71513 15.8342 8.89042 15.0305C8.06571 14.2267 7.60239 13.1366 7.60239 12C7.60239 10.8634 8.06571 9.77327 8.89042 8.96954C9.71513 8.16582 10.8337 7.71429 12 7.71429ZM12 9.14286C11.2225 9.14286 10.4768 9.44388 9.92695 9.97969C9.37714 10.5155 9.06826 11.2422 9.06826 12C9.06826 12.7578 9.37714 13.4845 9.92695 14.0203C10.4768 14.5561 11.2225 14.8571 12 14.8571C12.7775 14.8571 13.5232 14.5561 14.0731 14.0203C14.6229 13.4845 14.9317 12.7578 14.9317 12C14.9317 11.2422 14.6229 10.5155 14.0731 9.97969C13.5232 9.44388 12.7775 9.14286 12 9.14286Z" fill="current"/>
</svg>
