<svg width="current" height="current" viewBox="0 0 24 24" fill="none"
    xmlns="http://www.w3.org/2000/svg">
    <path d="M14.1653 20.4034C14.0788 20.4878 14.0095 20.5896 13.9614 20.7027C13.9133 20.8158 13.8874 20.9379 13.8853 21.0617C13.8832 21.1855 13.905 21.3085 13.9492 21.4233C13.9935 21.5381 14.0594 21.6424 14.1429 21.7299C14.2265 21.8175 14.326 21.8865 14.4356 21.9329C14.5452 21.9793 14.6626 22.002 14.7807 21.9999C14.8989 21.9977 15.0154 21.9706 15.1234 21.9202C15.2313 21.8698 15.3285 21.7971 15.409 21.7065L22.7426 14.0231C22.9074 13.8502 23 13.6159 23 13.3715C23 13.1272 22.9074 12.8928 22.7426 12.72L15.409 5.0365C15.3285 4.94592 15.2313 4.87326 15.1234 4.82287C15.0154 4.77247 14.8989 4.74538 14.7807 4.74319C14.6626 4.74101 14.5452 4.76378 14.4356 4.81015C14.326 4.85653 14.2265 4.92555 14.1429 5.0131C14.0594 5.10065 13.9935 5.20495 13.9492 5.31975C13.905 5.43456 13.8832 5.55753 13.8853 5.68133C13.8874 5.80513 13.9133 5.92722 13.9614 6.04032C14.0095 6.15342 14.0788 6.25521 14.1653 6.33962L19.9969 12.4495L6.57353 12.4495C6.07285 12.4498 5.57701 12.3468 5.11436 12.1463C4.6517 11.9458 4.23129 11.6517 3.87714 11.2809C3.523 10.9101 3.24206 10.4698 3.05039 9.98517C2.85872 9.50056 2.76006 8.98114 2.76006 8.45657L2.76006 2.92202C2.76006 2.67748 2.66735 2.44296 2.50231 2.27005C2.33727 2.09714 2.11343 2 1.88003 2C1.64663 2 1.42279 2.09714 1.25775 2.27005C1.09272 2.44296 1 2.67748 1 2.92202L1 8.45657C1 9.2233 1.14418 9.98251 1.4243 10.6908C1.70443 11.3992 2.11501 12.0428 2.63259 12.5848C3.15017 13.1268 3.76461 13.5567 4.44081 13.8499C5.11701 14.1431 5.84171 14.2939 6.57353 14.2935L19.9969 14.2935L14.1653 20.4034Z" fill="current"/>
</svg>
