<svg width="current" height="current" viewBox="0 0 24 24" fill="none"
    xmlns="http://www.w3.org/2000/svg">
    <path fill-rule="evenodd" clip-rule="evenodd" d="M12.0001 4.89473C11.4193 4.89473 10.6001 5.53321 10.6001 6.77451V12.0249C10.6001 13.2662 11.4193 13.9047 12.0001 13.9047C12.5809 13.9047 13.4001 13.2662 13.4001 12.0249V6.77451C13.4001 5.53321 12.5809 4.89473 12.0001 4.89473ZM8.6001 6.77451C8.6001 4.89303 9.92993 3 12.0001 3C14.0703 3 15.4001 4.89303 15.4001 6.77451V12.0249C15.4001 13.9064 14.0703 15.7994 12.0001 15.7994C9.92993 15.7994 8.6001 13.9064 8.6001 12.0249V6.77451Z" fill="current"/>
    <path fill-rule="evenodd" clip-rule="evenodd" d="M6.85714 10.7236C7.33053 10.7236 7.71429 11.1255 7.71429 11.6211C7.71429 14.5735 9.72528 16.7818 12 16.7818C14.2747 16.7818 16.2857 14.5735 16.2857 11.6211C16.2857 11.1255 16.6695 10.7236 17.1429 10.7236C17.6162 10.7236 18 11.1255 18 11.6211C18 15.0396 15.8316 18.0213 12.8571 18.5075V20.1026C12.8571 20.5982 12.4734 21.0001 12 21.0001C11.5266 21.0001 11.1429 20.5982 11.1429 20.1026V18.5075C8.1684 18.0213 6 15.0396 6 11.6211C6 11.1255 6.38376 10.7236 6.85714 10.7236Z" fill="current"/>
</svg>
