<svg width="current" height="current" viewBox="0 0 24 24" fill="none"
    xmlns="http://www.w3.org/2000/svg">
    <path fill-rule="evenodd" clip-rule="evenodd" d="M9.90155 3.22066C9.78165 3.22066 9.66815 3.26809 9.58563 3.35014C9.50337 3.43194 9.45855 3.54126 9.45855 3.65363V6.17319H14.5415V3.65363C14.5415 3.54126 14.4966 3.43194 14.4144 3.35014C14.3319 3.26809 14.2184 3.22066 14.0984 3.22066H9.90155ZM15.7539 6.17319V3.65363C15.7539 3.21259 15.5776 2.79118 15.2663 2.48166C14.9553 2.1724 14.5351 2 14.0984 2H9.90155C9.46492 2 9.04467 2.1724 8.73365 2.48166C8.42238 2.79118 8.24611 3.21259 8.24611 3.65363V6.17319H4.6626C4.65829 6.17314 4.65397 6.17314 4.64965 6.17319H3.60622C3.27141 6.17319 3 6.44644 3 6.78352C3 7.12059 3.27141 7.39384 3.60622 7.39384H4.09822L5.09858 19.3304C5.10577 20.0382 5.39171 20.714 5.89329 21.2128C6.40108 21.7177 7.0882 22 7.80311 22H16.1969C16.9118 22 17.5989 21.7177 18.1067 21.2128C18.6083 20.714 18.8942 20.0383 18.9014 19.3305L19.9018 7.39384H20.3938C20.7286 7.39384 21 7.12059 21 6.78352C21 6.44644 20.7286 6.17319 20.3938 6.17319H19.3504C19.346 6.17314 19.3417 6.17314 19.3374 6.17319H15.7539ZM5.31496 7.39384L6.30873 19.2518C6.31016 19.2688 6.31088 19.286 6.31088 19.3031C6.31088 19.6921 6.46624 20.0668 6.74527 20.3443C7.02456 20.622 7.40493 20.7793 7.80311 20.7793H16.1969C16.5951 20.7793 16.9754 20.622 17.2547 20.3443C17.5338 20.0668 17.6891 19.6921 17.6891 19.3031C17.6891 19.286 17.6898 19.2688 17.6913 19.2518L18.685 7.39384H5.31496ZM9.47024 11.5711C9.70551 11.3313 10.0893 11.3289 10.3275 11.5658L12 13.2288L13.6725 11.5658C13.9107 11.3289 14.2945 11.3313 14.5298 11.5711C14.765 11.8109 14.7626 12.1974 14.5244 12.4342L12.8627 14.0866L14.5244 15.7389C14.7626 15.9758 14.765 16.3622 14.5298 16.6021C14.2945 16.8419 13.9107 16.8443 13.6725 16.6074L12 14.9444L10.3275 16.6074C10.0893 16.8443 9.70551 16.8419 9.47024 16.6021C9.23497 16.3622 9.23736 15.9758 9.47557 15.7389L11.1373 14.0866L9.47557 12.4342C9.23736 12.1974 9.23497 11.8109 9.47024 11.5711Z" fill="current"/>
</svg>
