<svg width="current" height="current" viewBox="0 0 24 24" fill="none"
    xmlns="http://www.w3.org/2000/svg">
    <path fill-rule="evenodd" clip-rule="evenodd" d="M3 11.4222C3 7.12455 7.13145 3.80005 12.0018 3.80005C16.8707 3.80005 21 7.12482 21 11.4222C21 13.6142 19.9139 15.5686 18.2086 16.9454C18.468 17.4231 18.8661 17.9667 19.1993 18.363C19.2038 18.3684 19.2082 18.3737 19.2125 18.3792C19.4752 18.7121 19.6018 19.1782 19.3684 19.6101C19.1419 20.029 18.6911 20.2 18.2806 20.2C16.7147 20.2 14.9872 19.6086 13.7459 18.8745C12.9634 18.9167 12.3783 18.9386 12 18.9386C7.14423 18.9386 3 15.7337 3 11.4222ZM16.7109 16.9826C16.939 17.5969 17.4125 18.3027 17.8248 18.8369C16.6073 18.7321 15.2621 18.2324 14.3046 17.629C14.1809 17.551 14.0347 17.5134 13.8874 17.5217C12.9947 17.5718 12.3696 17.5958 12 17.5958C7.68039 17.5958 4.38462 14.7883 4.38462 11.4222C4.38462 8.04574 7.69686 5.14292 12.0018 5.14292C16.3047 5.14292 19.6154 8.04547 19.6154 11.4222C19.6154 13.2428 18.6744 14.9049 17.1184 16.0724C17.066 16.1113 17.0236 16.1418 16.9949 16.1624L16.9766 16.1753C16.7862 16.2963 16.6634 16.5047 16.6634 16.7372V16.7381C16.6634 16.8233 16.68 16.906 16.7109 16.9826Z" fill="current"/>
    <path fill-rule="evenodd" clip-rule="evenodd" d="M7.35658 12.8687C7.62694 12.6064 8.06529 12.6064 8.33565 12.8687C10.373 14.8446 13.6269 14.8446 15.6643 12.8687C15.9346 12.6064 16.373 12.6064 16.6433 12.8687C16.9137 13.1309 16.9137 13.556 16.6433 13.8182C14.0653 16.3185 9.93464 16.3185 7.35658 13.8182C7.08622 13.556 7.08622 13.1309 7.35658 12.8687Z" fill="current"/>
</svg>
