<svg width="current" height="current" viewBox="0 0 24 24" fill="none"
    xmlns="http://www.w3.org/2000/svg">
    <path fill-rule="evenodd" clip-rule="evenodd" d="M6.50795 4.93662C5.97605 4.93662 5.46474 5.1412 5.08681 5.5072C4.70869 5.87338 4.49521 6.37124 4.49521 6.89154V15.8023C4.49521 16.3226 4.70869 16.8204 5.08681 17.1866C5.46474 17.5526 5.97605 17.7572 6.50795 17.7572H11.5686C11.9815 17.7572 12.3162 18.0788 12.3162 18.4755C12.3162 18.8722 11.9815 19.1938 11.5686 19.1938H6.50795C5.57567 19.1938 4.68278 18.8351 4.02537 18.1985C3.36816 17.562 3 16.7 3 15.8023V6.89154C3 5.99387 3.36816 5.13183 4.02537 4.49537C4.68278 3.85871 5.57567 3.5 6.50795 3.5H15.7091C16.6414 3.5 17.5343 3.85871 18.1917 4.49537C18.8489 5.13183 19.2171 5.99387 19.2171 6.89154V11.3469C19.2171 11.7436 18.8824 12.0652 18.4695 12.0652C18.0566 12.0652 17.7219 11.7436 17.7219 11.3469V6.89154C17.7219 6.37124 17.5084 5.87338 17.1303 5.5072C16.7523 5.1412 16.241 4.93662 15.7091 4.93662H6.50795ZM13.1213 7.78261C13.1213 7.3859 13.456 7.0643 13.8689 7.0643H13.8781C14.291 7.0643 14.6257 7.3859 14.6257 7.78261C14.6257 8.17932 14.291 8.50092 13.8781 8.50092H13.8689C13.456 8.50092 13.1213 8.17932 13.1213 7.78261Z" fill="current"/>
    <path fill-rule="evenodd" clip-rule="evenodd" d="M7.90383 10.9542L4.22844 14.5135C3.95507 14.7783 3.51817 14.772 3.2526 14.4994C2.98704 14.2269 2.99336 13.7914 3.26674 13.5266L6.9472 9.96232L6.9568 9.95321C7.48895 9.45729 8.12796 9.17102 8.80823 9.17102C9.48851 9.17102 10.1275 9.45729 10.6597 9.95321L10.6693 9.96232L12.9695 12.19C13.2429 12.4548 13.2493 12.8903 12.9837 13.1628C12.7181 13.4354 12.2812 13.4417 12.0078 13.1769L9.71263 10.9542C9.39249 10.6575 9.07992 10.5469 8.80823 10.5469C8.53654 10.5469 8.22397 10.6575 7.90383 10.9542ZM15.4686 14.3904C15.7383 14.2797 16.0275 14.2231 16.3192 14.2236C16.6109 14.2241 16.9 14.2816 17.1693 14.3932C17.3037 14.4489 17.432 14.5176 17.5522 14.5981C17.673 14.5177 17.8018 14.4494 17.9368 14.394C18.2065 14.2835 18.4958 14.227 18.7875 14.2276C19.0792 14.2282 19.3682 14.2858 19.6375 14.3975C19.9065 14.5092 20.1509 14.6728 20.3554 14.8796C20.7677 15.2959 21.001 15.8548 21 16.4399C20.999 17.025 20.7638 17.5831 20.3501 17.9981L20.3475 18.0007L18.0307 20.2997C17.7607 20.5675 17.3242 20.5667 17.0553 20.2979L14.743 17.9873C14.3311 17.5711 14.0981 17.0124 14.0991 16.4277C14.1001 15.8429 14.335 15.285 14.7483 14.8701C14.9538 14.6639 15.1989 14.5011 15.4686 14.3904ZM16.3169 15.5995C16.2055 15.5994 16.0956 15.621 15.9941 15.6627C15.8926 15.7043 15.8022 15.7649 15.7277 15.8396C15.5665 16.0015 15.4797 16.2134 15.4793 16.43C15.4789 16.6461 15.5646 16.8577 15.7245 17.0199C15.7248 17.0203 15.7252 17.0206 15.7256 17.021L17.5455 18.8397L19.3712 17.0281C19.3716 17.0278 19.3719 17.0274 19.3723 17.027C19.533 16.8653 19.6194 16.6538 19.6198 16.4376C19.6202 16.2209 19.534 16.0086 19.3733 15.8463C19.2991 15.7713 19.2085 15.7099 19.1072 15.6679C19.0058 15.6258 18.8961 15.6038 18.7846 15.6035C18.6731 15.6033 18.5633 15.6249 18.4617 15.6665C18.3602 15.7082 18.2698 15.7687 18.1953 15.8434L18.1924 15.8463L18.0378 15.9995C17.7686 16.2664 17.3337 16.2664 17.0645 15.9995L16.9052 15.8415C16.831 15.7666 16.7409 15.7057 16.6396 15.6637C16.5382 15.6217 16.4284 15.5997 16.3169 15.5995Z" fill="current"/>
</svg>
