<svg width="current" height="current" viewBox="0 0 24 24" fill="none"
    xmlns="http://www.w3.org/2000/svg">
    <path d="M11.0755 5.32503C11.2026 5.38624 11.3098 5.48204 11.3849 5.60144C11.46 5.72083 11.4999 5.85898 11.5 6.00003V18C11.4998 18.1412 11.4598 18.2794 11.3846 18.3988C11.3093 18.5182 11.2019 18.6139 11.0747 18.675C10.9475 18.7361 10.8056 18.7601 10.6654 18.7442C10.5252 18.7283 10.3923 18.6731 10.282 18.585L6.7375 15.75H3.25C3.05109 15.75 2.86032 15.671 2.71967 15.5304C2.57902 15.3897 2.5 15.1989 2.5 15V9.00003C2.5 8.80111 2.57902 8.61035 2.71967 8.4697C2.86032 8.32904 3.05109 8.25003 3.25 8.25003H6.7375L10.282 5.41503C10.3924 5.32681 10.5254 5.27156 10.6658 5.25563C10.8062 5.23971 10.9482 5.26376 11.0755 5.32503Z" fill="current"/>
    <path fill-rule="evenodd" clip-rule="evenodd" d="M17.7433 5.44705C18.0486 5.16721 18.5231 5.18792 18.8029 5.4933C22.054 9.04116 22.0783 14.9771 18.7997 18.5102C18.518 18.8138 18.0434 18.8315 17.7398 18.5498C17.4362 18.268 17.4184 17.7935 17.7002 17.4898C20.4396 14.5378 20.4279 9.48685 17.697 6.50671C17.4172 6.20132 17.4379 5.7269 17.7433 5.44705ZM15.5886 8.3729C15.9349 8.1457 16.3999 8.24228 16.6271 8.58862C17.2344 9.51438 17.4998 10.794 17.4998 12C17.4998 13.206 17.2344 14.4856 16.6271 15.4114C16.3999 15.7577 15.9349 15.8543 15.5886 15.6271C15.2422 15.3999 15.1457 14.935 15.3729 14.5886C15.7653 13.9904 15.9998 13.032 15.9998 12C15.9998 10.968 15.7653 10.0096 15.3729 9.41139C15.1457 9.06505 15.2422 8.6001 15.5886 8.3729Z" fill="current"/>
</svg>
