<svg width="current" height="current" viewBox="0 0 24 24" fill="none"
    xmlns="http://www.w3.org/2000/svg">
    <path d="M20.5692 3.43356C20.3749 3.24015 20.1311 3.10418 19.8648 3.0406C19.5984 2.97702 19.3197 2.98829 19.0593 3.07317L4.0323 8.09803C3.75361 8.18656 3.50734 8.3559 3.32459 8.58465C3.14184 8.81341 3.03082 9.09133 3.00554 9.38331C2.98026 9.67528 3.04186 9.96822 3.18256 10.2251C3.32326 10.482 3.53675 10.6914 3.79606 10.8267L10.0308 13.9158L13.1122 20.1865C13.236 20.432 13.4256 20.6381 13.6596 20.7817C13.8936 20.9254 14.1628 21.001 14.4372 21H14.5399C14.8338 20.9783 15.1143 20.8685 15.3451 20.6849C15.5759 20.5012 15.7463 20.2523 15.8341 19.9703L20.9184 4.94719C21.0092 4.68764 21.0246 4.40758 20.9627 4.13961C20.9009 3.87164 20.7644 3.62678 20.5692 3.43356ZM4.66912 9.519L17.7856 5.13254L10.5033 12.433L4.66912 9.519ZM14.5091 19.3731L11.592 13.5245L18.8744 6.224L14.5091 19.3731Z" fill="current"/>
</svg>
