<svg width="current" height="current" viewBox="0 0 24 24" fill="none"
    xmlns="http://www.w3.org/2000/svg">
    <path d="M14.1926 10.1714C15.7333 10.1714 16.6815 8 16.6815 6.62857C16.6815 5.48571 16.0889 4.11429 14.9037 4.11429C13.363 4.11429 12.4148 6.28571 12.4148 7.65714C12.4148 8.8 13.0074 10.1714 14.1926 10.1714ZM9.68889 10.1714C10.8741 10.1714 11.4667 8.8 11.4667 7.65714C11.4667 6.17143 10.5185 4 8.97778 4C7.79259 4 7.2 5.37143 7.2 6.51429C7.08148 8 8.02963 10.1714 9.68889 10.1714ZM18.4593 9.02857C16.9185 9.02857 15.8519 11.0857 15.8519 12.5714C15.8519 13.6 16.3259 14.6286 17.3926 14.6286C18.9333 14.6286 20 12.5714 20 11.0857C20 10.0571 19.4074 9.02857 18.4593 9.02857ZM8.14815 12.5714C8.14815 11.0857 6.96296 9.02857 5.54074 9.02857C4.47407 9.02857 4 10.0571 4 11.0857C4 12.5714 5.18519 14.6286 6.60741 14.6286C7.67407 14.6286 8.14815 13.6 8.14815 12.5714ZM11.9407 12.3429C9.57037 12.3429 6.37037 16 6.37037 18.5143C6.37037 19.6571 7.2 20 8.14815 20C9.57037 20 10.637 19.0857 11.9407 19.0857C13.1259 19.0857 14.1926 20 15.4963 20C16.4444 20 17.5111 19.7714 17.5111 18.5143C17.5111 16 14.3111 12.3429 11.9407 12.3429Z" fill="current"/>
</svg>
