<svg width="current" height="current" viewBox="0 0 24 24" fill="none"
    xmlns="http://www.w3.org/2000/svg">
    <path d="M11.0755 5.32515C11.2026 5.38636 11.3098 5.48216 11.3849 5.60156C11.46 5.72096 11.4999 5.8591 11.5 6.00015V18.0001C11.4998 18.1413 11.4598 18.2795 11.3846 18.3989C11.3093 18.5183 11.2019 18.614 11.0747 18.6751C10.9475 18.7362 10.8056 18.7602 10.6654 18.7443C10.5252 18.7284 10.3923 18.6732 10.282 18.5851L6.7375 15.7501H3.25C3.05109 15.7501 2.86032 15.6711 2.71967 15.5305C2.57902 15.3898 2.5 15.1991 2.5 15.0001V9.00015C2.5 8.80124 2.57902 8.61047 2.71967 8.46982C2.86032 8.32917 3.05109 8.25015 3.25 8.25015H6.7375L10.282 5.41515C10.3924 5.32693 10.5254 5.27168 10.6658 5.25576C10.8062 5.23983 10.9482 5.26389 11.0755 5.32515ZM21.781 8.46915C21.8508 8.53882 21.9063 8.62158 21.9441 8.7127C21.9819 8.80382 22.0013 8.9015 22.0013 9.00015C22.0013 9.0988 21.9819 9.19648 21.9441 9.2876C21.9063 9.37872 21.8508 9.46148 21.781 9.53115L19.3105 12.0001L21.781 14.4691C21.9218 14.61 22.0009 14.801 22.0009 15.0001C22.0009 15.1993 21.9218 15.3903 21.781 15.5311C21.6402 15.672 21.4492 15.7511 21.25 15.7511C21.0508 15.7511 20.8598 15.672 20.719 15.5311L18.25 13.0606L15.781 15.5311C15.6402 15.672 15.4492 15.7511 15.25 15.7511C15.0508 15.7511 14.8598 15.672 14.719 15.5311C14.5782 15.3903 14.4991 15.1993 14.4991 15.0001C14.4991 14.801 14.5782 14.61 14.719 14.4691L17.1895 12.0001L14.719 9.53115C14.6493 9.46142 14.594 9.37863 14.5562 9.28752C14.5185 9.19641 14.4991 9.09876 14.4991 9.00015C14.4991 8.90153 14.5185 8.80388 14.5562 8.71277C14.594 8.62166 14.6493 8.53888 14.719 8.46915C14.8598 8.32832 15.0508 8.2492 15.25 8.2492C15.3486 8.2492 15.4463 8.26862 15.5374 8.30636C15.6285 8.3441 15.7113 8.39942 15.781 8.46915L18.25 10.9396L20.719 8.46915C20.7887 8.3993 20.8714 8.34389 20.9626 8.30608C21.0537 8.26827 21.1513 8.24881 21.25 8.24881C21.3487 8.24881 21.4463 8.26827 21.5374 8.30608C21.6286 8.34389 21.7113 8.3993 21.781 8.46915Z" fill="current"/>
</svg>
