<svg width="current" height="current" viewBox="0 0 24 24" fill="none"
    xmlns="http://www.w3.org/2000/svg">
    <path d="M3.66667 4.11242V17.6447C3.66667 18.6812 4.14077 19.6752 4.98469 20.408C5.8286 21.1409 6.97319 21.5526 8.16667 21.5526H18.416C18.1914 21.9841 17.8283 22.3501 17.3702 22.6068C16.9122 22.8635 16.3785 23 15.8333 23H8.16667C6.53117 23 4.96265 22.4358 3.80617 21.4315C2.6497 20.4272 2 19.065 2 17.6447V6.35526C1.99987 5.88179 2.15705 5.41834 2.45267 5.02051C2.7483 4.62269 3.16982 4.30738 3.66667 4.11242ZM13.1713 1C13.5435 0.999955 13.9121 1.06359 14.2559 1.18726C14.5998 1.31094 14.9122 1.49223 15.1753 1.72079L21.17 6.92668C21.4332 7.15521 21.642 7.42653 21.7844 7.72514C21.9268 8.02374 22.0001 8.34379 22 8.667V17.6447C22 18.2973 21.7015 18.9232 21.1701 19.3846C20.6388 19.846 19.9181 20.1053 19.1667 20.1053H8.16667C7.41522 20.1053 6.69455 19.846 6.1632 19.3846C5.63184 18.9232 5.33333 18.2973 5.33333 17.6447V3.46053C5.33333 2.80795 5.63184 2.18211 6.1632 1.72067C6.69455 1.25923 7.41522 1 8.16667 1H13.1713ZM12.6667 2.44737H8.16667C7.85725 2.44737 7.5605 2.55411 7.34171 2.74412C7.12292 2.93412 7 3.19182 7 3.46053V17.6447C7 18.2046 7.52267 18.6579 8.16667 18.6579H19.1667C19.4761 18.6579 19.7728 18.5512 19.9916 18.3611C20.2104 18.1711 20.3333 17.9134 20.3333 17.6447V9.10526H15.5C14.7723 9.10526 14.0726 8.86213 13.5457 8.42626C13.0188 7.99038 12.7053 7.39518 12.67 6.764L12.6667 6.64474V2.44737ZM19.6547 7.65789L14.3333 3.03674V6.64474C14.3334 6.8991 14.4436 7.14414 14.642 7.3312C14.8405 7.51826 15.1127 7.63364 15.4047 7.65442L15.5 7.65789H19.6547Z" fill="current"/>
</svg>
