<svg width="current" height="current" viewBox="0 0 24 24" fill="none"
    xmlns="http://www.w3.org/2000/svg">
    <path d="M7.08511 10.5426C7.02429 10.484 6.97592 10.4138 6.94288 10.3361C6.90984 10.2584 6.89281 10.1748 6.89281 10.0904C6.89281 10.006 6.90984 9.92245 6.94288 9.84476C6.97592 9.76708 7.02429 9.69686 7.08511 9.6383C7.14274 9.57779 7.21205 9.52961 7.28886 9.4967C7.36566 9.46378 7.44835 9.44681 7.53192 9.44681C7.61548 9.44681 7.69817 9.46378 7.77497 9.4967C7.85178 9.52961 7.92109 9.57779 7.97872 9.6383L11.3617 13.0106V2.6383C11.3617 2.46901 11.429 2.30666 11.5487 2.18695C11.6684 2.06725 11.8307 2 12 2C12.1693 2 12.3316 2.06725 12.4513 2.18695C12.571 2.30666 12.6383 2.46901 12.6383 2.6383V13.0106L16.0213 9.6383C16.0789 9.57779 16.1482 9.52961 16.225 9.4967C16.3018 9.46378 16.3845 9.44681 16.4681 9.44681C16.5516 9.44681 16.6343 9.46378 16.7111 9.4967C16.7879 9.52961 16.8573 9.57779 16.9149 9.6383C16.9757 9.69686 17.0241 9.76708 17.0571 9.84476C17.0902 9.92245 17.1072 10.006 17.1072 10.0904C17.1072 10.1748 17.0902 10.2584 17.0571 10.3361C17.0241 10.4138 16.9757 10.484 16.9149 10.5426L12.4468 15C12.3892 15.0605 12.3199 15.1087 12.2431 15.1416C12.1663 15.1745 12.0836 15.1915 12 15.1915C11.9164 15.1915 11.8337 15.1745 11.7569 15.1416C11.6801 15.1087 11.6108 15.0605 11.5532 15L7.08511 10.5426ZM21.3617 13.9149C21.1924 13.9149 21.0301 13.9821 20.9104 14.1018C20.7907 14.2216 20.7234 14.3839 20.7234 14.5532V20.5106C20.7234 20.5671 20.701 20.6212 20.6611 20.6611C20.6212 20.701 20.5671 20.7234 20.5106 20.7234H3.48936C3.43293 20.7234 3.37881 20.701 3.33891 20.6611C3.29901 20.6212 3.2766 20.5671 3.2766 20.5106V14.5532C3.2766 14.3839 3.20935 14.2216 3.08964 14.1018C2.96994 13.9821 2.80759 13.9149 2.6383 13.9149C2.46901 13.9149 2.30666 13.9821 2.18695 14.1018C2.06725 14.2216 2 14.3839 2 14.5532V20.5106C2 20.9056 2.15691 21.2845 2.43622 21.5638C2.71553 21.8431 3.09436 22 3.48936 22H20.5106C20.9056 22 21.2845 21.8431 21.5638 21.5638C21.8431 21.2845 22 20.9056 22 20.5106V14.5532C22 14.3839 21.9328 14.2216 21.813 14.1018C21.6933 13.9821 21.531 13.9149 21.3617 13.9149Z" fill="current"/>
</svg>
