<svg width="current" height="current" viewBox="0 0 24 24" fill="none"
    xmlns="http://www.w3.org/2000/svg">
    <path fill-rule="evenodd" clip-rule="evenodd" d="M10.2712 11.9744C10.4032 12.0798 10.4201 12.2667 10.309 12.3919C7.93791 15.0624 6.58133 17.902 5.81773 20.0759C5.43611 21.1624 5.2032 22.0809 5.06588 22.7262C4.99723 23.0489 4.95252 23.3031 4.92507 23.4757C4.91135 23.562 4.90194 23.6278 4.89603 23.6717C4.89307 23.6936 4.89098 23.71 4.88966 23.7206L4.88825 23.7323L4.88795 23.7349L4.88789 23.7353C4.86949 23.898 4.71553 24.0157 4.54396 23.9984C4.37235 23.981 4.2481 23.835 4.26644 23.6722L4.57717 23.7037C4.26644 23.6722 4.26643 23.6724 4.26644 23.6722L4.26666 23.6704L4.26713 23.6663L4.26892 23.6516C4.27049 23.6389 4.27285 23.6204 4.27609 23.5964C4.28258 23.5484 4.29262 23.4781 4.30706 23.3873C4.33593 23.2058 4.3824 22.9419 4.45322 22.6091C4.59483 21.9435 4.83395 21.0012 5.22475 19.8887C6.00598 17.6645 7.39577 14.7528 9.83085 12.0103C9.942 11.8851 10.1391 11.869 10.2712 11.9744Z" fill="current"/>
    <path fill-rule="evenodd" clip-rule="evenodd" d="M20.1673 0.607448C20.1024 0.587925 20.0345 0.581218 19.9672 0.587629L10.9439 1.44289C10.9439 1.4429 10.9439 1.44289 10.9439 1.44289C8.51143 1.67382 6.27008 2.84765 4.71374 4.70835C3.15722 6.56927 2.41382 8.96445 2.64862 11.3669C3.137 16.3674 7.73321 20.0186 12.8002 19.538C17.967 19.0478 21.8489 14.5098 21.3509 9.40962L20.5362 1.06327C20.5358 1.06036 20.5354 1.05744 20.5352 1.05451C20.5285 0.985795 20.5081 0.919268 20.4755 0.858747C20.4429 0.798235 20.3987 0.745047 20.3457 0.702024C20.2928 0.659014 20.2321 0.626975 20.1673 0.607448ZM21.1373 0.987867C21.1222 0.848384 21.0801 0.7128 21.0131 0.588444C20.9441 0.460532 20.85 0.346874 20.7359 0.254166C20.6218 0.161445 20.4899 0.0915299 20.3477 0.048706C20.2055 0.00589284 20.056 -0.00892973 19.9078 0.00516728C19.9079 0.00516254 19.9078 0.00517202 19.9078 0.00516728L10.8846 0.860423C8.28835 1.10689 5.89928 2.35953 4.24227 4.34059C2.58544 6.32145 1.7957 8.86866 2.04524 11.4219C2.56477 16.7413 7.45452 20.6332 12.8595 20.1205C18.3623 19.5984 22.4833 14.772 21.9542 9.35468C21.9542 9.35469 21.9542 9.35468 21.9542 9.35468L21.1386 0.998345C21.1382 0.994832 21.1378 0.991339 21.1373 0.987867Z" fill="current"/>
    <path d="M12.4548 9.55073C19.0543 5.32022 19.7719 13.2296 8.48636 14.2866C7.40551 3.16567 15.4222 2.36438 12.4548 9.55073Z" fill="current"/>
</svg>
