<svg width="current" height="current" viewBox="0 0 24 24" fill="none"
    xmlns="http://www.w3.org/2000/svg">
    <path fill-rule="evenodd" clip-rule="evenodd" d="M6.51429 6.23081C5.8831 6.23081 5.37143 6.7474 5.37143 7.38465V18.4616C5.37143 19.0988 5.8831 19.6154 6.51429 19.6154H17.4857C18.1169 19.6154 18.6286 19.0988 18.6286 18.4616V7.38465C18.6286 6.7474 18.1169 6.23081 17.4857 6.23081H6.51429ZM4 7.38465C4 5.9827 5.12568 4.84619 6.51429 4.84619H17.4857C18.8743 4.84619 20 5.9827 20 7.38465V18.4616C20 19.8635 18.8743 21 17.4857 21H6.51429C5.12568 21 4 19.8635 4 18.4616V7.38465Z" fill="current"/>
    <path fill-rule="evenodd" clip-rule="evenodd" d="M8.34286 3C8.72157 3 9.02857 3.30996 9.02857 3.69231V7.38462C9.02857 7.76697 8.72157 8.07692 8.34286 8.07692C7.96415 8.07692 7.65714 7.76697 7.65714 7.38462V3.69231C7.65714 3.30996 7.96415 3 8.34286 3ZM15.6571 3C16.0359 3 16.3429 3.30996 16.3429 3.69231V7.38462C16.3429 7.76697 16.0359 8.07692 15.6571 8.07692C15.2784 8.07692 14.9714 7.76697 14.9714 7.38462V3.69231C14.9714 3.30996 15.2784 3 15.6571 3ZM4 11.0769C4 10.6946 4.307 10.3846 4.68571 10.3846H19.3143C19.693 10.3846 20 10.6946 20 11.0769C20 11.4593 19.693 11.7692 19.3143 11.7692H4.68571C4.307 11.7692 4 11.4593 4 11.0769ZM7.65714 14.7692C7.65714 14.3869 7.96415 14.0769 8.34286 14.0769H10.1714C10.5501 14.0769 10.8571 14.3869 10.8571 14.7692V16.6154C10.8571 16.9977 10.5501 17.3077 10.1714 17.3077H8.34286C7.96415 17.3077 7.65714 16.9977 7.65714 16.6154V14.7692ZM9.02857 15.4615V15.9231H9.48571V15.4615H9.02857Z" fill="current"/>
</svg>
