<svg width="current" height="current" viewBox="0 0 24 24" fill="none"
    xmlns="http://www.w3.org/2000/svg">
    <path d="M15.7731 15.6489L21.769 9.96213L21.845 9.87856C21.9575 9.73288 22.0118 9.55295 21.9978 9.37181C21.9839 9.19066 21.9026 9.02045 21.769 8.89241L15.7731 3.20826L15.6905 3.14012C15.2105 2.79298 14.5038 3.12726 14.5038 3.74312V6.48169L14.2038 6.50098C9.45322 6.86355 6.6706 9.76284 6.00661 15.0214C5.92127 15.6964 6.72393 16.1194 7.24392 15.672C9.15189 14.0288 11.1239 13.008 13.1705 12.5991C13.4985 12.5336 13.8278 12.4834 14.1598 12.4487L14.5038 12.4191V15.114L14.5105 15.2194C14.5905 15.8018 15.3225 16.0757 15.7731 15.6489ZM14.3011 7.78284L15.8371 7.68384V5.06998L20.4317 9.42598L15.8371 13.7846V11.0113L14.0292 11.1681H14.0185C11.7479 11.4034 9.60522 12.2803 7.58258 13.7421C7.97991 12.0206 8.65857 10.7258 9.55055 9.79884C10.6572 8.64813 12.2038 7.94355 14.3011 7.78155V7.78284ZM5.33328 4.28569C4.44924 4.28569 3.60141 4.62434 2.9763 5.22714C2.35118 5.82993 2 6.6475 2 7.49998V17.7857C2 18.6382 2.35118 19.4558 2.9763 20.0586C3.60141 20.6614 4.44924 21 5.33328 21H15.9998C16.8838 21 17.7317 20.6614 18.3568 20.0586C18.9819 19.4558 19.3331 18.6382 19.3331 17.7857V16.5C19.3331 16.3295 19.2628 16.166 19.1378 16.0454C19.0128 15.9249 18.8432 15.8571 18.6664 15.8571C18.4896 15.8571 18.32 15.9249 18.195 16.0454C18.07 16.166 17.9998 16.3295 17.9998 16.5V17.7857C17.9998 18.2972 17.789 18.7877 17.414 19.1494C17.0389 19.5111 16.5302 19.7143 15.9998 19.7143H5.33328C4.80286 19.7143 4.29416 19.5111 3.91909 19.1494C3.54402 18.7877 3.33331 18.2972 3.33331 17.7857V7.49998C3.33331 6.98849 3.54402 6.49795 3.91909 6.13627C4.29416 5.7746 4.80286 5.57141 5.33328 5.57141H9.33322C9.51003 5.57141 9.6796 5.50368 9.80462 5.38312C9.92964 5.26256 9.99988 5.09905 9.99988 4.92855C9.99988 4.75805 9.92964 4.59454 9.80462 4.47398C9.6796 4.35342 9.51003 4.28569 9.33322 4.28569H5.33328Z" fill="current"/>
</svg>
