<svg width="current" height="current" viewBox="0 0 24 24" fill="none"
    xmlns="http://www.w3.org/2000/svg">
    <path d="M9.34091 12.8182C9.82915 12.8182 10.2974 13.0121 10.6426 13.3574C10.9879 13.7026 11.1818 14.1709 11.1818 14.6591V19.1591C11.1818 19.6473 10.9879 20.1156 10.6426 20.4608C10.2974 20.806 9.82915 21 9.34091 21H4.84091C4.35267 21 3.88443 20.806 3.53919 20.4608C3.19395 20.1156 3 19.6473 3 19.1591V14.6591C3 14.1709 3.19395 13.7026 3.53919 13.3574C3.88443 13.0121 4.35267 12.8182 4.84091 12.8182H9.34091ZM19.1591 12.8182C19.6473 12.8182 20.1156 13.0121 20.4608 13.3574C20.806 13.7026 21 14.1709 21 14.6591V19.1591C21 19.6473 20.806 20.1156 20.4608 20.4608C20.1156 20.806 19.6473 21 19.1591 21H14.6591C14.1709 21 13.7026 20.806 13.3574 20.4608C13.0121 20.1156 12.8182 19.6473 12.8182 19.1591V14.6591C12.8182 14.1709 13.0121 13.7026 13.3574 13.3574C13.7026 13.0121 14.1709 12.8182 14.6591 12.8182H19.1591ZM9.34091 14.0455H4.84091C4.67816 14.0455 4.52208 14.1101 4.407 14.2252C4.29192 14.3403 4.22727 14.4963 4.22727 14.6591V19.1591C4.22727 19.4978 4.50218 19.7727 4.84091 19.7727H9.34091C9.50366 19.7727 9.65974 19.7081 9.77482 19.593C9.88989 19.4779 9.95455 19.3218 9.95455 19.1591V14.6591C9.95455 14.4963 9.88989 14.3403 9.77482 14.2252C9.65974 14.1101 9.50366 14.0455 9.34091 14.0455ZM19.1591 14.0455H14.6591C14.4963 14.0455 14.3403 14.1101 14.2252 14.2252C14.1101 14.3403 14.0455 14.4963 14.0455 14.6591V19.1591C14.0455 19.4978 14.3204 19.7727 14.6591 19.7727H19.1591C19.3218 19.7727 19.4779 19.7081 19.593 19.593C19.7081 19.4779 19.7727 19.3218 19.7727 19.1591V14.6591C19.7727 14.4963 19.7081 14.3403 19.593 14.2252C19.4779 14.1101 19.3218 14.0455 19.1591 14.0455ZM9.34091 3C9.82915 3 10.2974 3.19395 10.6426 3.53919C10.9879 3.88443 11.1818 4.35267 11.1818 4.84091V9.34091C11.1818 9.82915 10.9879 10.2974 10.6426 10.6426C10.2974 10.9879 9.82915 11.1818 9.34091 11.1818H4.84091C4.35267 11.1818 3.88443 10.9879 3.53919 10.6426C3.19395 10.2974 3 9.82915 3 9.34091V4.84091C3 4.35267 3.19395 3.88443 3.53919 3.53919C3.88443 3.19395 4.35267 3 4.84091 3H9.34091ZM19.1591 3C19.6473 3 20.1156 3.19395 20.4608 3.53919C20.806 3.88443 21 4.35267 21 4.84091V9.34091C21 9.82915 20.806 10.2974 20.4608 10.6426C20.1156 10.9879 19.6473 11.1818 19.1591 11.1818H14.6591C14.1709 11.1818 13.7026 10.9879 13.3574 10.6426C13.0121 10.2974 12.8182 9.82915 12.8182 9.34091V4.84091C12.8182 4.35267 13.0121 3.88443 13.3574 3.53919C13.7026 3.19395 14.1709 3 14.6591 3H19.1591ZM9.34091 4.22727H4.84091C4.67816 4.22727 4.52208 4.29192 4.407 4.407C4.29192 4.52208 4.22727 4.67816 4.22727 4.84091V9.34091C4.22727 9.67964 4.50218 9.95455 4.84091 9.95455H9.34091C9.50366 9.95455 9.65974 9.88989 9.77482 9.77482C9.88989 9.65974 9.95455 9.50366 9.95455 9.34091V4.84091C9.95455 4.67816 9.88989 4.52208 9.77482 4.407C9.65974 4.29192 9.50366 4.22727 9.34091 4.22727ZM19.1591 4.22727H14.6591C14.4963 4.22727 14.3403 4.29192 14.2252 4.407C14.1101 4.52208 14.0455 4.67816 14.0455 4.84091V9.34091C14.0455 9.67964 14.3204 9.95455 14.6591 9.95455H19.1591C19.3218 9.95455 19.4779 9.88989 19.593 9.77482C19.7081 9.65974 19.7727 9.50366 19.7727 9.34091V4.84091C19.7727 4.67816 19.7081 4.52208 19.593 4.407C19.4779 4.29192 19.3218 4.22727 19.1591 4.22727Z" fill="current"/>
</svg>
