<svg width="current" height="current" viewBox="0 0 24 24" fill="none"
    xmlns="http://www.w3.org/2000/svg">
    <path fill-rule="evenodd" clip-rule="evenodd" d="M4.875 4.875C4.875 4.24511 5.12522 3.64102 5.57062 3.19562C6.01602 2.75022 6.62011 2.5 7.25 2.5H16.75C17.3799 2.5 17.984 2.75022 18.4294 3.19562C18.8748 3.64102 19.125 4.24511 19.125 4.875V6.22044L20.2424 6.81656C20.6223 7.01913 20.94 7.32115 21.1615 7.69034C21.3831 8.05952 21.5 8.48197 21.5 8.9125V19.125C21.5 19.7549 21.2498 20.359 20.8044 20.8044C20.359 21.2498 19.7549 21.5 19.125 21.5H4.875C4.24511 21.5 3.64102 21.2498 3.19562 20.8044C2.75022 20.359 2.5 19.7549 2.5 19.125V8.9125C2.49996 8.48197 2.61695 8.05952 2.83845 7.69034C3.05996 7.32115 3.37766 7.01913 3.75756 6.81656L4.875 6.22044V4.875ZM4.875 7.56706L4.31687 7.86394C4.12672 7.96519 3.9677 8.11626 3.85683 8.30097C3.74596 8.48568 3.68743 8.69707 3.6875 8.9125V9.88269L4.875 10.5952V7.56706ZM6.0625 11.3077L10.5156 13.9796L12 13.0889L13.4844 13.9796L17.9375 11.3077V4.875C17.9375 4.56006 17.8124 4.25801 17.5897 4.03531C17.367 3.81261 17.0649 3.6875 16.75 3.6875H7.25C6.93506 3.6875 6.63301 3.81261 6.41031 4.03531C6.18761 4.25801 6.0625 4.56006 6.0625 4.875V11.3077ZM19.125 10.5952L20.3125 9.88269V8.9125C20.3124 8.69727 20.2537 8.48613 20.1429 8.30165C20.032 8.11717 19.8731 7.96628 19.6831 7.86513L19.125 7.56706V10.5952ZM20.3125 11.2673L14.6386 14.6719L20.3125 18.0764V11.2673ZM20.2709 19.4373L12 14.4724L3.72906 19.4361C3.79737 19.6877 3.94659 19.9099 4.1537 20.0683C4.3608 20.2267 4.61427 20.3125 4.875 20.3125H19.125C19.3857 20.3125 19.6392 20.2267 19.8463 20.0683C20.0534 19.9099 20.2026 19.6877 20.2709 19.4361V19.4373ZM3.6875 18.0753L9.36137 14.6707L3.6875 11.2673V18.0764V18.0753Z" fill="current"/>
    <path d="M12 8.79957C13.7037 4.94192 17.8008 7.88517 12 12C6.19921 7.88517 10.2963 4.94192 12 8.79957Z" fill="current"/>
    <path fill-rule="evenodd" clip-rule="evenodd" d="M11.6354 10.4493L11.0852 9.20358C10.7314 8.40246 10.3211 8.10831 10.1107 8.0285C10.0646 8.011 10.0319 8.00293 10.0095 7.99973C9.9914 8.08605 9.97743 8.32276 10.2041 8.76725C10.4308 9.21193 10.8697 9.78736 11.6354 10.4493ZM12 12C6.81431 8.32149 9.53869 5.57927 11.392 7.79511C11.6118 8.05794 11.8193 8.39052 12 8.79957C12.1807 8.39052 12.3882 8.05794 12.608 7.79511C14.4613 5.57927 17.1857 8.32149 12 12ZM12.3646 10.4493C13.1303 9.78736 13.5692 9.21193 13.7959 8.76725C14.0226 8.32276 14.0086 8.08605 13.9905 7.99973C13.9681 8.00293 13.9354 8.011 13.8893 8.0285C13.6789 8.10831 13.2686 8.40246 12.9148 9.20358L12.3646 10.4493ZM14.0318 8.00246C14.0309 8.00386 14.0242 8.00376 14.0144 7.99795C14.0279 7.99814 14.0328 8.00105 14.0318 8.00246ZM9.96816 8.00246C9.96724 8.00105 9.97214 7.99814 9.98563 7.99795C9.97582 8.00376 9.96908 8.00386 9.96816 8.00246Z" fill="current"/>
</svg>
