<svg width="current" height="current" viewBox="0 0 24 24" fill="none"
    xmlns="http://www.w3.org/2000/svg">
    <path fill-rule="evenodd" clip-rule="evenodd" d="M5.92402 3.6606C5.32904 3.6606 4.75707 3.89707 4.33432 4.32013C3.91135 4.74341 3.67255 5.31888 3.67255 5.9203V16.2203C3.67255 16.8217 3.91135 17.3972 4.33432 17.8205C4.75707 18.2435 5.32904 18.48 5.92402 18.48H11.5849C12.0468 18.48 12.4212 18.8517 12.4212 19.3103C12.4212 19.7689 12.0468 20.1406 11.5849 20.1406H5.92402C4.88117 20.1406 3.88237 19.726 3.14699 18.99C2.41183 18.2543 2 17.2579 2 16.2203V5.9203C2 4.88268 2.41183 3.88625 3.14699 3.15055C3.88237 2.41464 4.88117 2 5.92402 2H16.2165C17.2594 2 18.2582 2.41464 18.9936 3.15055C19.7287 3.88625 20.1405 4.88268 20.1405 5.9203V11.0703C20.1405 11.5289 19.7661 11.9006 19.3043 11.9006C18.8424 11.9006 18.468 11.5289 18.468 11.0703V5.9203C18.468 5.31888 18.2292 4.74341 17.8062 4.32013C17.3835 3.89707 16.8115 3.6606 16.2165 3.6606H5.92402ZM13.3217 6.9503C13.3217 6.49173 13.6962 6.12 14.158 6.12H14.1683C14.6302 6.12 15.0046 6.49173 15.0046 6.9503C15.0046 7.40886 14.6302 7.7806 14.1683 7.7806H14.158C13.6962 7.7806 13.3217 7.40886 13.3217 6.9503Z" fill="current"/>
    <path fill-rule="evenodd" clip-rule="evenodd" d="M7.48549 10.6166L3.37416 14.7309C3.06836 15.0369 2.57965 15.0296 2.28258 14.7146C1.98551 14.3996 1.99259 13.8961 2.29839 13.5901L6.41539 9.47009L6.42612 9.45956C7.02139 8.88632 7.73619 8.55542 8.49715 8.55542C9.25811 8.55542 9.97291 8.88632 10.5682 9.45956L10.5789 9.47009L13.152 12.0451C13.4578 12.3511 13.4649 12.8546 13.1678 13.1696C12.8708 13.4846 12.3821 13.4919 12.0763 13.1859L9.50882 10.6166C9.15071 10.2737 8.80106 10.1459 8.49715 10.1459C8.19324 10.1459 7.84359 10.2737 7.48549 10.6166Z" fill="current"/>
    <path d="M17.7143 22.0001C17.5355 21.9978 17.3648 21.9257 17.2384 21.7993C17.112 21.6729 17.0399 21.5021 17.0376 21.3234V14.1053C17.0376 13.9258 17.1089 13.7537 17.2358 13.6268C17.3627 13.4999 17.5348 13.4286 17.7143 13.4286C17.8938 13.4286 18.0659 13.4999 18.1928 13.6268C18.3197 13.7537 18.391 13.9258 18.391 14.1053V21.3234C18.3887 21.5021 18.3166 21.6729 18.1902 21.7993C18.0638 21.9257 17.893 21.9978 17.7143 22.0001Z" fill="current"/>
    <path d="M21.3234 18.391H14.1053C13.9258 18.391 13.7537 18.3197 13.6268 18.1928C13.4999 18.0659 13.4286 17.8938 13.4286 17.7143C13.4286 17.5348 13.4999 17.3627 13.6268 17.2358C13.7537 17.1089 13.9258 17.0376 14.1053 17.0376H21.3234C21.5028 17.0376 21.675 17.1089 21.8019 17.2358C21.9288 17.3627 22.0001 17.5348 22.0001 17.7143C22.0001 17.8938 21.9288 18.0659 21.8019 18.1928C21.675 18.3197 21.5028 18.391 21.3234 18.391Z" fill="current"/>
</svg>