<svg width="current" height="current" viewBox="0 0 24 24" fill="none"
    xmlns="http://www.w3.org/2000/svg">
    <path d="M15.2616 6.7093L12 3.62791L8.73849 6.7093L7.87695 5.89535L12 2L16.1231 5.89535L15.2616 6.7093Z" fill="current"/>
    <path d="M11.3848 2.81396H12.6155V15.0233H11.3848V2.81396Z" fill="current"/>
    <path d="M18.1538 22H5.84615C4.8 22 4 21.2442 4 20.2558V9.79069C4 8.80232 4.8 8.04651 5.84615 8.04651H10.1538V9.2093H5.84615C5.47692 9.2093 5.23077 9.44186 5.23077 9.79069V20.2558C5.23077 20.6046 5.47692 20.8372 5.84615 20.8372H18.1538C18.5231 20.8372 18.7692 20.6046 18.7692 20.2558V9.79069C18.7692 9.44186 18.5231 9.2093 18.1538 9.2093H13.8462V8.04651H18.1538C19.2 8.04651 20 8.80232 20 9.79069V20.2558C20 21.2442 19.2 22 18.1538 22Z" fill="current"/>
</svg>
