<svg width="current" height="current" viewBox="0 0 24 24" fill="none"
    xmlns="http://www.w3.org/2000/svg">
    <path fill-rule="evenodd" clip-rule="evenodd" d="M6.33562 17.0986C6.35138 16.9221 6.33062 16.7441 6.27481 16.5771C6.219 16.4102 6.12952 16.2586 6.01275 16.133C4.82025 14.8503 4.125 13.2084 4.125 11.4387C4.125 7.59063 7.5045 4.20552 12 4.20552C16.4955 4.20552 19.875 7.59063 19.875 11.4387C19.875 15.2879 16.4955 18.6718 12 18.6718C11.207 18.673 10.4173 18.5628 9.651 18.3439C9.38322 18.267 9.09839 18.2988 8.85113 18.4331C8.41575 18.6694 7.45612 19.1202 5.88787 19.5096C6.10666 18.7226 6.25656 17.9154 6.33562 17.0986ZM5.43563 20.8454L5.45812 20.8405C7.51687 20.4029 8.77462 19.8255 9.35962 19.5084C10.2209 19.7546 11.1086 19.8786 12 19.8773C16.9703 19.8773 21 16.0992 21 11.4387C21 6.77811 16.9703 3 12 3C7.02975 3 3 6.77811 3 11.4387C3 13.5604 3.83588 15.5013 5.21625 16.9841C5.11968 17.9365 4.9219 18.8741 4.62675 19.7785L4.62337 19.7917C4.5395 20.0508 4.44795 20.3069 4.34888 20.5596C4.26 20.7839 4.43212 21.0346 4.656 20.996C4.91662 20.9503 5.17653 20.9001 5.43563 20.8454ZM12 9.01917C13.872 6.95653 18.5531 10.5659 12 15.2059C5.44688 10.5647 10.128 6.95653 12 9.01917Z" fill="current"/>
</svg>
