<svg width="current" height="current" viewBox="0 0 24 24" fill="none"
    xmlns="http://www.w3.org/2000/svg">
    <path d="M21.6251 6.05229L17.9735 2.37552C17.7322 2.13501 17.4057 2 17.0653 2C16.7249 2 16.3983 2.13501 16.157 2.37552L3.21153 15.3252L2.02958 20.4353C1.9888 20.6221 1.9902 20.8157 2.03367 21.0019C2.07714 21.188 2.16157 21.3622 2.28081 21.5115C2.40005 21.6608 2.55109 21.7815 2.72287 21.8649C2.89466 21.9482 3.08287 21.9921 3.27374 21.9933C3.36268 22.0022 3.4523 22.0022 3.54124 21.9933L8.69829 20.8092L21.6251 7.87197C21.8652 7.63025 22 7.30312 22 6.96213C22 6.62114 21.8652 6.29402 21.6251 6.05229ZM8.07621 19.6875L3.24264 20.7033L4.34372 15.9546L14.0295 6.2891L17.762 10.0282L8.07621 19.6875ZM18.5956 9.12457L14.8631 5.38548L17.028 3.22928L20.6982 6.96836L18.5956 9.12457Z" fill="current"/>
</svg>
