<svg width="current" height="current" viewBox="0 0 24 24" fill="none"
    xmlns="http://www.w3.org/2000/svg">
    <path fill-rule="evenodd" clip-rule="evenodd" d="M11.293 8.29303C11.4806 8.10556 11.7349 8.00024 12 8.00024C12.2652 8.00024 12.5195 8.10556 12.707 8.29303L18.364 13.95C18.4595 14.0423 18.5357 14.1526 18.5881 14.2746C18.6405 14.3966 18.6681 14.5279 18.6693 14.6606C18.6704 14.7934 18.6451 14.9251 18.5948 15.048C18.5446 15.1709 18.4703 15.2825 18.3764 15.3764C18.2825 15.4703 18.1709 15.5446 18.048 15.5949C17.9251 15.6451 17.7934 15.6704 17.6606 15.6693C17.5278 15.6681 17.3966 15.6405 17.2746 15.5881C17.1526 15.5357 17.0423 15.4595 16.95 15.364L12 10.414L7.05002 15.364C6.86142 15.5462 6.60882 15.647 6.34662 15.6447C6.08443 15.6424 5.83361 15.5373 5.6482 15.3518C5.4628 15.1664 5.35763 14.9156 5.35535 14.6534C5.35307 14.3912 5.45386 14.1386 5.63602 13.95L11.293 8.29303Z" fill="current"/>
</svg>