<svg width="current" height="current" viewBox="0 0 24 24" fill="none"
    xmlns="http://www.w3.org/2000/svg">
    <path d="M7.5 10.1719C7.5 10.4276 7.60159 10.6729 7.78243 10.8537C7.96327 11.0346 8.20854 11.1362 8.46429 11.1362C8.72003 11.1362 8.9653 11.0346 9.14614 10.8537C9.32698 10.6729 9.42857 10.4276 9.42857 10.1719C9.42857 9.91613 9.32698 9.67086 9.14614 9.49002C8.9653 9.30918 8.72003 9.20759 8.46429 9.20759C8.20854 9.20759 7.96327 9.30918 7.78243 9.49002C7.60159 9.67086 7.5 9.91613 7.5 10.1719ZM14.5714 10.1719C14.5714 10.4276 14.673 10.6729 14.8539 10.8537C15.0347 11.0346 15.28 11.1362 15.5357 11.1362C15.7915 11.1362 16.0367 11.0346 16.2176 10.8537C16.3984 10.6729 16.5 10.4276 16.5 10.1719C16.5 9.91613 16.3984 9.67086 16.2176 9.49002C16.0367 9.30918 15.7915 9.20759 15.5357 9.20759C15.28 9.20759 15.0347 9.30918 14.8539 9.49002C14.673 9.67086 14.5714 9.91613 14.5714 10.1719ZM12 3C7.02991 3 3 7.02991 3 12C3 16.9701 7.02991 21 12 21C16.9701 21 21 16.9701 21 12C21 7.02991 16.9701 3 12 3ZM17.2835 17.2835C16.5964 17.9705 15.7969 18.5089 14.9069 18.8866C13.9888 19.2763 13.0105 19.4732 12 19.4732C10.9895 19.4732 10.0112 19.2763 9.09107 18.8866C8.20246 18.5113 7.3953 17.9668 6.71451 17.2835C6.02746 16.5964 5.48906 15.7969 5.11138 14.9069C4.72366 13.9888 4.52679 13.0105 4.52679 12C4.52679 10.9895 4.72366 10.0112 5.11339 9.09107C5.48868 8.20246 6.03315 7.3953 6.71652 6.71451C7.40357 6.02746 8.20312 5.48906 9.09308 5.11138C10.0112 4.72366 10.9895 4.52679 12 4.52679C13.0105 4.52679 13.9888 4.72366 14.9089 5.11339C15.7975 5.48868 16.6047 6.03315 17.2855 6.71652C17.9725 7.40357 18.5109 8.20312 18.8886 9.09308C19.2763 10.0112 19.4732 10.9895 19.4732 12C19.4732 13.0105 19.2763 13.9888 18.8866 14.9089C18.5118 15.7972 17.9672 16.6038 17.2835 17.2835ZM15.0536 12.4219H14.0873C14.0029 12.4219 13.9306 12.4862 13.9246 12.5705C13.8482 13.565 13.0145 14.3504 12 14.3504C10.9855 14.3504 10.1498 13.565 10.0754 12.5705C10.0694 12.4862 9.9971 12.4219 9.91272 12.4219H8.94643C8.92463 12.4218 8.90305 12.4263 8.88301 12.4348C8.86297 12.4434 8.84488 12.456 8.82985 12.4718C8.81481 12.4875 8.80315 12.5062 8.79556 12.5267C8.78797 12.5471 8.78462 12.5689 8.78571 12.5906C8.87411 14.2842 10.2824 15.6362 12 15.6362C13.7176 15.6362 15.1259 14.2842 15.2143 12.5906C15.2154 12.5689 15.212 12.5471 15.2044 12.5267C15.1969 12.5062 15.1852 12.4875 15.1702 12.4718C15.1551 12.456 15.137 12.4434 15.117 12.4348C15.0969 12.4263 15.0754 12.4218 15.0536 12.4219Z" fill="current"/>
</svg>
