<svg width="current" height="current" viewBox="0 0 24 24" fill="none"
    xmlns="http://www.w3.org/2000/svg">
    <path fill-rule="evenodd" clip-rule="evenodd" d="M4 6.66667C4 6.29848 4.307 6 4.68571 6H19.3143C19.693 6 20 6.29848 20 6.66667C20 7.03486 19.693 7.33333 19.3143 7.33333H4.68571C4.307 7.33333 4 7.03486 4 6.66667ZM4 12C4 11.6318 4.307 11.3333 4.68571 11.3333H19.3143C19.693 11.3333 20 11.6318 20 12C20 12.3682 19.693 12.6667 19.3143 12.6667H4.68571C4.307 12.6667 4 12.3682 4 12ZM4 17.3333C4 16.9651 4.307 16.6667 4.68571 16.6667H19.3143C19.693 16.6667 20 16.9651 20 17.3333C20 17.7015 19.693 18 19.3143 18H4.68571C4.307 18 4 17.7015 4 17.3333Z" fill="current"/>
</svg>
