<svg width="current" height="current" viewBox="0 0 24 24" fill="none"
    xmlns="http://www.w3.org/2000/svg">
    <path d="M19.0879 10.5724C19.095 8.68833 18.3584 6.87834 17.0397 5.53942C15.7209 4.2005 13.9277 3.44195 12.0533 3.43014H12C11.068 3.43131 10.1454 3.61698 9.28484 3.97655C8.42426 4.33611 7.64256 4.86253 6.98439 5.52575C6.32621 6.18897 5.80444 6.976 5.44887 7.84191C5.0933 8.70781 4.91089 9.63563 4.91205 10.5724C4.91205 13.6346 4.28142 15.3666 3.75738 16.2773C3.63137 16.4953 3.56427 16.7426 3.56271 16.9948C3.56115 17.2469 3.6252 17.4951 3.74849 17.7146C3.87285 17.933 4.05271 18.1142 4.26965 18.2397C4.48659 18.3652 4.73281 18.4305 4.98311 18.4289H8.44714C8.44714 19.376 8.82146 20.2843 9.48775 20.954C10.154 21.6238 11.0577 22 12 22C12.9423 22 13.846 21.6238 14.5122 20.954C15.1785 20.2843 15.5529 19.376 15.5529 18.4289H19.0169C19.2672 18.4305 19.5134 18.3652 19.7303 18.2397C19.9473 18.1142 20.1271 17.933 20.2515 17.7146C20.3748 17.4951 20.4388 17.2469 20.4373 16.9948C20.4357 16.7426 20.3686 16.4953 20.2426 16.2773C19.7186 15.3666 19.0879 13.6346 19.0879 10.5724ZM12 20.5715C11.4354 20.5692 10.8945 20.3427 10.4952 19.9414C10.096 19.5401 9.87063 18.9964 9.86829 18.4289H14.1317C14.1294 18.9964 13.904 19.5401 13.5048 19.9414C13.1055 20.3427 12.5646 20.5692 12 20.5715ZM4.98311 17.0004C5.59598 15.938 6.3332 13.956 6.3332 10.5724C6.33086 9.82289 6.47571 9.08029 6.75945 8.38717C7.04318 7.69404 7.46023 7.06401 7.98667 6.5332C8.51311 6.00239 9.13861 5.58123 9.8273 5.29387C10.516 5.00651 11.2543 4.85859 12 4.85859H12.0444C12.7859 4.86036 13.5196 5.01046 14.2028 5.30016C14.886 5.58986 15.5049 6.01335 16.0236 6.54595C16.5475 7.0755 16.9623 7.70373 17.2442 8.39465C17.5262 9.08557 17.6698 9.82561 17.6668 10.5724C17.6668 13.956 18.404 15.938 19.0169 17.0004H4.98311ZM20.6068 7.11733C20.5088 7.16121 20.4032 7.18546 20.2959 7.18875C20.1623 7.18992 20.0312 7.15274 19.9179 7.08157C19.8046 7.0104 19.7139 6.90821 19.6564 6.787C18.9549 5.36824 17.8796 4.1701 16.5477 3.32301C16.4683 3.27318 16.3996 3.20813 16.3453 3.13159C16.2909 3.05505 16.2522 2.9685 16.2311 2.87689C16.2101 2.78529 16.2072 2.69041 16.2227 2.59769C16.2381 2.50496 16.2716 2.41621 16.3212 2.33648C16.3707 2.25676 16.4354 2.18763 16.5116 2.13304C16.5877 2.07845 16.6739 2.03948 16.765 2.01834C16.8561 1.9972 16.9505 1.99431 17.0428 2.00983C17.135 2.02536 17.2233 2.05899 17.3026 2.10882C18.8616 3.09551 20.1164 4.49899 20.9265 6.16205C21.0098 6.33142 21.0228 6.52702 20.9629 6.70605C20.903 6.88508 20.7749 7.03296 20.6068 7.11733ZM3.70408 7.18875C3.59683 7.18546 3.49124 7.16121 3.39321 7.11733C3.22507 7.03296 3.09702 6.88508 3.0371 6.70605C2.97717 6.52702 2.99024 6.33142 3.07345 6.16205C3.88361 4.49899 5.13843 3.09551 6.69736 2.10882C6.85755 2.00819 7.05095 1.97564 7.23501 2.01834C7.32615 2.03948 7.41225 2.07845 7.48841 2.13304C7.56456 2.18763 7.62927 2.25676 7.67884 2.33648C7.72841 2.41621 7.76188 2.50496 7.77732 2.59769C7.79277 2.69041 7.7899 2.78529 7.76886 2.87689C7.74783 2.9685 7.70905 3.05505 7.65475 3.13159C7.60044 3.20813 7.53166 3.27318 7.45235 3.32301C6.12036 4.1701 5.0451 5.36824 4.3436 6.787C4.28611 6.90821 4.19539 7.0104 4.0821 7.08157C3.96882 7.15274 3.83767 7.18992 3.70408 7.18875Z" fill="current"/>
</svg>
