<svg width="current" height="current" viewBox="0 0 24 24" fill="none"
    xmlns="http://www.w3.org/2000/svg">
    <path fill-rule="evenodd" clip-rule="evenodd" d="M12.6463 2.55697C12.4473 2.4497 12.2254 2.39359 12 2.39359C11.7746 2.39359 11.5527 2.4497 11.3538 2.55697L3.10375 7.01261C2.88378 7.13122 2.69978 7.30814 2.57142 7.52445C2.44306 7.74076 2.37517 7.98833 2.375 8.24069V9.37827L6.82313 12.0795C6.62669 12.5309 6.51792 13.0164 6.50275 13.5095L2.375 11.0032V18.9857L7.15863 16.0798C7.36488 16.4627 7.61925 16.8498 7.92588 17.2355L2.42312 20.58C2.50222 20.8751 2.675 21.1355 2.91481 21.3212C3.15461 21.507 3.44811 21.6076 3.75 21.6076H20.25C20.5519 21.6076 20.8454 21.507 21.0852 21.3212C21.325 21.1355 21.4978 20.8751 21.5769 20.58L16.0741 17.2369C16.3808 16.8498 16.6351 16.4627 16.8414 16.0798L21.625 18.9857V11.0018L17.4973 13.5095C17.4819 13.0169 17.3731 12.5319 17.1769 12.0809L21.625 9.37827V8.24069C21.6248 7.98833 21.5569 7.74076 21.4286 7.52445C21.3002 7.30814 21.1162 7.13122 20.8962 7.01261L12.6463 2.55697ZM10.7075 1.32749C11.1057 1.11247 11.5501 1 12.0014 1C12.4527 1 12.897 1.11247 13.2953 1.32749L21.5452 5.78313C21.9849 6.02083 22.3525 6.37505 22.6087 6.80791C22.8649 7.24078 23.0002 7.73602 23 8.24069V20.2152C23 20.9538 22.7103 21.6621 22.1945 22.1844C21.6788 22.7066 20.9793 23 20.25 23H3.75C3.02065 23 2.32118 22.7066 1.80546 22.1844C1.28973 21.6621 1 20.9538 1 20.2152V8.24069C0.99995 7.73587 1.13541 7.24054 1.39189 6.80766C1.64838 6.37478 2.01624 6.02065 2.45613 5.78313L10.7061 1.32749H10.7075Z" fill="current"/>
    <path d="M12.0002 14.1995C14.0825 9.48456 19.09 13.0819 12.0002 18.1111C4.91031 13.0819 9.91783 9.48456 12.0002 14.1995Z" fill="current"/>
</svg>
