<svg width="current" height="current" viewBox="0 0 24 24" fill="none"
    xmlns="http://www.w3.org/2000/svg">
    <path d="M6 18C7.5913 19.5913 9.74956 20.4853 12 20.4853C14.2504 20.4853 16.4087 19.5913 18 18C19.5913 16.4087 20.4853 14.2504 20.4853 12C20.4853 9.74956 19.5913 7.5913 18 6C16.4087 4.4087 14.2504 3.51472 12 3.51472C9.74956 3.51472 7.5913 4.4087 6 6C4.4087 7.5913 3.51472 9.74956 3.51472 12C3.51472 14.2504 4.4087 16.4087 6 18ZM12.5303 15.6742C12.5315 15.7447 12.5187 15.8146 12.4926 15.88C12.4665 15.9454 12.4276 16.005 12.3782 16.0552C12.3289 16.1054 12.27 16.1453 12.2051 16.1725C12.1401 16.1998 12.0704 16.2138 12 16.2138C11.9296 16.2138 11.8599 16.1998 11.7949 16.1725C11.73 16.1453 11.6711 16.1054 11.6218 16.0552C11.5724 16.005 11.5335 15.9454 11.5074 15.88C11.4813 15.8146 11.4685 15.7447 11.4698 15.6743L11.4698 9.53025L9.39375 11.6063C9.29429 11.7057 9.1594 11.7616 9.01875 11.7616C8.8781 11.7616 8.74321 11.7057 8.64375 11.6063C8.54429 11.5068 8.48842 11.3719 8.48842 11.2312C8.48842 11.0906 8.54429 10.9557 8.64375 10.8563L11.625 7.875C11.7245 7.77554 11.8593 7.71967 12 7.71967C12.1407 7.71967 12.2755 7.77554 12.375 7.875L15.3563 10.8562C15.4557 10.9557 15.5116 11.0906 15.5116 11.2313C15.5116 11.3719 15.4557 11.5068 15.3563 11.6062C15.2568 11.7057 15.1219 11.7616 14.9813 11.7616C14.8406 11.7616 14.7057 11.7057 14.6063 11.6062L12.5302 9.53025L12.5303 15.6742Z" fill="current"/>
</svg>
