<svg width="current" height="current" viewBox="0 0 24 24" fill="none"
    xmlns="http://www.w3.org/2000/svg">
    <path fill-rule="evenodd" clip-rule="evenodd" d="M10.9947 2.70869C11.2805 2.43044 11.7437 2.43044 12.0295 2.70869L20.8099 11.2587C21.0956 11.5369 21.0956 11.9881 20.8099 12.2663C20.5241 12.5446 20.0608 12.5446 19.7751 12.2663L11.5121 4.22013L4.4982 11.05H4.68292C5.08702 11.05 5.41461 11.369 5.41461 11.7625V18.4125C5.41461 18.7274 5.5431 19.0295 5.7718 19.2522C6.0005 19.4749 6.31068 19.6 6.63411 19.6H12.4877C12.8918 19.6 13.2194 19.919 13.2194 20.3125C13.2194 20.706 12.8918 21.025 12.4877 21.025H6.63411C5.92256 21.025 5.24016 20.7498 4.73702 20.2598C4.23388 19.7699 3.95122 19.1054 3.95122 18.4125V12.475H2.73172C2.43578 12.475 2.16897 12.3014 2.05572 12.0352C1.94247 11.7689 2.00507 11.4625 2.21433 11.2587L10.9947 2.70869Z" fill="current"/>
    <path fill-rule="evenodd" clip-rule="evenodd" d="M10.5365 13.425C10.2131 13.425 9.90292 13.5501 9.67422 13.7728C9.44552 13.9955 9.31703 14.2976 9.31703 14.6125V20.3125C9.31703 20.706 8.98944 21.025 8.58534 21.025C8.18123 21.025 7.85364 20.706 7.85364 20.3125V14.6125C7.85364 13.9196 8.1363 13.2551 8.63944 12.7652C9.14258 12.2752 9.82498 12 10.5365 12H12.4877C13.01 12 13.499 12.1464 13.9108 12.3972C14.2534 12.6059 14.3575 13.0455 14.1432 13.3791C13.9289 13.7127 13.4775 13.814 13.1349 13.6054C12.9477 13.4914 12.7264 13.425 12.4877 13.425H10.5365ZM16.1282 15.0295C16.4157 14.9108 16.7248 14.8499 17.0371 14.8505C17.3493 14.851 17.6583 14.9129 17.9453 15.0325C18.0856 15.0909 18.2192 15.1625 18.3444 15.2461C18.4701 15.1627 18.6043 15.0914 18.7452 15.0334C19.0327 14.9148 19.3419 14.8541 19.6541 14.8547C19.9664 14.8554 20.2753 14.9174 20.5623 15.0372C20.8494 15.1569 21.1086 15.3318 21.3245 15.5515C21.759 15.9929 22.0011 16.5809 22 17.1923C21.999 17.8039 21.7547 18.3914 21.3184 18.8314L21.3157 18.8342L18.8591 21.2851C18.7211 21.4228 18.5318 21.5003 18.3342 21.5C18.1366 21.4997 17.9475 21.4215 17.81 21.2833L15.3584 18.82C14.9241 18.3786 14.682 17.7907 14.6831 17.1794C14.6841 16.5681 14.9281 15.9809 15.364 15.541M17.0346 16.2755C16.9194 16.2753 16.8053 16.2977 16.6992 16.3415C16.5932 16.3853 16.4973 16.4495 16.4173 16.5302C16.244 16.7051 16.1469 16.9387 16.1465 17.1817C16.1461 17.4242 16.2418 17.6575 16.4138 17.8328C16.4142 17.8332 16.4146 17.8336 16.415 17.834L18.3373 19.7655L20.2656 17.8416C20.266 17.8412 20.2664 17.8408 20.2669 17.8404C20.4395 17.6656 20.5362 17.4325 20.5366 17.1899C20.537 16.9467 20.4407 16.7128 20.2678 16.5373C20.1882 16.4563 20.092 16.3912 19.9861 16.347C19.8802 16.3029 19.7662 16.28 19.651 16.2797C19.5358 16.2795 19.4217 16.3019 19.3156 16.3456C19.2096 16.3894 19.1136 16.4535 19.0336 16.5342L19.0306 16.5373L18.8667 16.7007C18.729 16.8379 18.5403 16.9153 18.3433 16.9153C18.1462 16.9153 17.9575 16.8379 17.8198 16.7007L17.651 16.5323C17.5713 16.4513 17.4756 16.3867 17.3697 16.3426C17.2638 16.2985 17.1498 16.2756 17.0346 16.2755ZM16.1282 15.0295C15.8407 15.1481 15.5807 15.3221 15.364 15.541Z" fill="current"/>
</svg>
