<svg width="current" height="current" viewBox="0 0 24 24" fill="none"
    xmlns="http://www.w3.org/2000/svg">
    <path fill-rule="evenodd" clip-rule="evenodd" d="M13.6061 8.76768C13.6061 8.32138 13.9656 7.95959 14.4091 7.95959H14.4171C14.8606 7.95959 15.2202 8.32138 15.2202 8.76768C15.2202 9.21397 14.8606 9.57576 14.4171 9.57576H14.4091C13.9656 9.57576 13.6061 9.21397 13.6061 8.76768Z" fill="current"/>
    <path fill-rule="evenodd" clip-rule="evenodd" d="M4 7.9596C4 5.81934 5.73622 4 7.98484 4H16.0152C18.2638 4 20 5.81934 20 7.9596V16.0404C20 18.1807 18.2638 20 16.0152 20H7.98484C5.73622 20 4 18.1807 4 16.0404V7.9596ZM7.98484 5.45455C6.68543 5.45455 5.54541 6.52953 5.54541 7.9596V16.0404C5.54541 17.4705 6.68543 18.5455 7.98484 18.5455H16.0152C17.3146 18.5455 18.4546 17.4705 18.4546 16.0404V7.9596C18.4546 6.52953 17.3146 5.45455 16.0152 5.45455H7.98484Z" fill="current"/>
    <path fill-rule="evenodd" clip-rule="evenodd" d="M7.70425 10.9021C8.29446 10.3306 9.08114 9.92334 9.99248 9.92334C10.9038 9.92334 11.6905 10.3306 12.2807 10.9021L12.2858 10.907L12.3019 10.9229L16.317 14.9634C16.6039 15.252 16.596 15.7125 16.2995 15.9917C16.0029 16.271 15.5299 16.2634 15.2431 15.9747L11.2304 11.9368L11.2246 11.931C10.8479 11.5673 10.4226 11.3779 9.99248 11.3779C9.56238 11.3779 9.13705 11.5673 8.7604 11.931L8.75457 11.9368L5.54495 15.1666C5.25806 15.4553 4.78508 15.4629 4.48852 15.1836C4.19196 14.9044 4.18411 14.444 4.471 14.1553L7.68812 10.9179L7.70425 10.9021Z" fill="current"/>
    <path fill-rule="evenodd" clip-rule="evenodd" d="M13.3513 12.5099C13.9403 11.9396 14.7186 11.5396 15.6138 11.5396C16.509 11.5396 17.2873 11.9396 17.8763 12.5099L17.8813 12.5147L17.8973 12.5305L19.5033 14.1467C19.7856 14.4307 19.7856 14.8912 19.5033 15.1752C19.2211 15.4593 18.7635 15.4593 18.4812 15.1752L16.8776 13.5616L16.8717 13.5557C16.4938 13.1907 16.06 12.9941 15.6138 12.9941C15.1676 12.9941 14.7339 13.1907 14.3559 13.5557L14.35 13.5615L13.5495 14.3672C13.2672 14.6512 12.8096 14.6512 12.5274 14.3672C12.2451 14.0831 12.2451 13.6227 12.5274 13.3386L13.3353 12.5256L13.3513 12.5099Z" fill="current"/>
</svg>
