<svg width="current" height="current" viewBox="0 0 24 24" fill="none"
    xmlns="http://www.w3.org/2000/svg">
    <path d="M15.7731 16.0543L21.769 9.7357L21.845 9.64284C21.9576 9.48098 22.0118 9.28106 21.9978 9.07979C21.9839 8.87852 21.9026 8.68939 21.769 8.54712L15.7731 2.2314L15.6905 2.15569C15.2105 1.76997 14.5038 2.1414 14.5038 2.82569V5.86855L14.2038 5.88998C9.45322 6.29284 6.6706 9.51427 6.00661 15.3571C5.92127 16.1071 6.72393 16.5771 7.24392 16.08C9.15189 14.2543 11.1239 13.12 13.1705 12.6657C13.4985 12.5928 13.8278 12.5371 14.1598 12.4986L14.5038 12.4657V15.46L14.5105 15.5771C14.5905 16.2243 15.3225 16.5286 15.7731 16.0543ZM14.3011 7.31427L15.8371 7.20427V4.29998L20.4317 9.13998L15.8371 13.9828V10.9014L14.0292 11.0757H14.0185C11.7479 11.3371 9.60522 12.3114 7.58258 13.9357C7.97991 12.0228 8.65857 10.5843 9.55055 9.55427C10.6572 8.2757 12.2038 7.49284 14.3011 7.31284V7.31427ZM5.33328 3.42855C4.44924 3.42855 3.60141 3.80482 2.9763 4.47459C2.35118 5.14437 2 6.05278 2 6.99998V18.4286C2 19.3758 2.35118 20.2842 2.9763 20.954C3.60141 21.6237 4.44924 22 5.33328 22H15.9998C16.8838 22 17.7317 21.6237 18.3568 20.954C18.9819 20.2842 19.3331 19.3758 19.3331 18.4286V17C19.3331 16.8106 19.2628 16.6289 19.1378 16.4949C19.0128 16.361 18.8432 16.2857 18.6664 16.2857C18.4896 16.2857 18.32 16.361 18.195 16.4949C18.07 16.6289 17.9998 16.8106 17.9998 17V18.4286C17.9998 18.9969 17.789 19.5419 17.414 19.9438C17.0389 20.3457 16.5302 20.5714 15.9998 20.5714H5.33328C4.80286 20.5714 4.29416 20.3457 3.91909 19.9438C3.54402 19.5419 3.33331 18.9969 3.33331 18.4286V6.99998C3.33331 6.43166 3.54402 5.88661 3.91909 5.48475C4.29416 5.08288 4.80286 4.85712 5.33328 4.85712H9.33322C9.51003 4.85712 9.6796 4.78186 9.80462 4.64791C9.92964 4.51395 9.99988 4.33227 9.99988 4.14283C9.99988 3.95339 9.92964 3.77171 9.80462 3.63776C9.6796 3.5038 9.51003 3.42855 9.33322 3.42855H5.33328Z" fill="current"/>
</svg>
