<svg width="current" height="current" viewBox="0 0 24 24" fill="none"
    xmlns="http://www.w3.org/2000/svg">
    <path fill-rule="evenodd" clip-rule="evenodd" d="M12.554 15.5294C12.3665 15.7168 12.1122 15.8221 11.847 15.8221C11.5819 15.8221 11.3276 15.7168 11.14 15.5294L5.48302 9.87236C5.38751 9.78011 5.31133 9.66977 5.25892 9.54776C5.20651 9.42576 5.17893 9.29454 5.17777 9.16176C5.17662 9.02898 5.20192 8.8973 5.2522 8.7744C5.30248 8.65151 5.37673 8.53985 5.47063 8.44596C5.56452 8.35207 5.67617 8.27782 5.79907 8.22754C5.92196 8.17725 6.05364 8.15195 6.18642 8.15311C6.3192 8.15426 6.45042 8.18185 6.57243 8.23426C6.69443 8.28666 6.80478 8.36285 6.89702 8.45836L11.847 13.4084L16.797 8.45836C16.9856 8.2762 17.2382 8.1754 17.5004 8.17768C17.7626 8.17996 18.0134 8.28513 18.1988 8.47054C18.3842 8.65595 18.4894 8.90676 18.4917 9.16896C18.494 9.43115 18.3932 9.68375 18.211 9.87236L12.554 15.5294Z" fill="current"/>
</svg>
