<svg width="current" height="current" viewBox="0 0 24 24" fill="none"
    xmlns="http://www.w3.org/2000/svg">
    <path d="M21.625 17.3333C21.625 17.687 21.4801 18.0261 21.2223 18.2761C20.9644 18.5262 20.6147 18.6667 20.25 18.6667H3.75C3.38533 18.6667 3.03559 18.5262 2.77773 18.2761C2.51987 18.0261 2.375 17.687 2.375 17.3333V9.33333C2.375 8.97971 2.51987 8.64057 2.77773 8.39052C3.03559 8.14048 3.38533 8 3.75 8H5.3615C6.45495 7.99942 7.50343 7.57787 8.2765 6.828L9.41775 5.724C9.67488 5.47459 10.0234 5.33411 10.3871 5.33333H13.6101C13.9748 5.33341 14.3244 5.47393 14.5823 5.724L15.7208 6.828C16.1039 7.19962 16.5587 7.4944 17.0594 7.69549C17.56 7.89659 18.0966 8.00006 18.6385 8H20.25C20.6147 8 20.9644 8.14048 21.2223 8.39052C21.4801 8.64057 21.625 8.97971 21.625 9.33333V17.3333ZM3.75 6.66667C3.02065 6.66667 2.32118 6.94762 1.80546 7.44772C1.28973 7.94781 1 8.62609 1 9.33333L1 17.3333C1 18.0406 1.28973 18.7189 1.80546 19.219C2.32118 19.719 3.02065 20 3.75 20H20.25C20.9793 20 21.6788 19.719 22.1945 19.219C22.7103 18.7189 23 18.0406 23 17.3333V9.33333C23 8.62609 22.7103 7.94781 22.1945 7.44772C21.6788 6.94762 20.9793 6.66667 20.25 6.66667H18.6385C17.9092 6.66652 17.2099 6.38547 16.6942 5.88533L15.5558 4.78133C15.0401 4.2812 14.3408 4.00015 13.6115 4H10.3885C9.65921 4.00015 8.95986 4.2812 8.44425 4.78133L7.30575 5.88533C6.79014 6.38547 6.09079 6.66652 5.3615 6.66667H3.75Z" fill="current"/>
    <path d="M12 16C11.0883 16 10.214 15.6488 9.56932 15.0237C8.92466 14.3986 8.5625 13.5507 8.5625 12.6667C8.5625 11.7826 8.92466 10.9348 9.56932 10.3096C10.214 9.68452 11.0883 9.33333 12 9.33333C12.9117 9.33333 13.786 9.68452 14.4307 10.3096C15.0753 10.9348 15.4375 11.7826 15.4375 12.6667C15.4375 13.5507 15.0753 14.3986 14.4307 15.0237C13.786 15.6488 12.9117 16 12 16ZM12 17.3333C13.2764 17.3333 14.5004 16.8417 15.403 15.9665C16.3055 15.0913 16.8125 13.9043 16.8125 12.6667C16.8125 11.429 16.3055 10.242 15.403 9.36684C14.5004 8.49167 13.2764 8 12 8C10.7236 8 9.49957 8.49167 8.59705 9.36684C7.69453 10.242 7.1875 11.429 7.1875 12.6667C7.1875 13.9043 7.69453 15.0913 8.59705 15.9665C9.49957 16.8417 10.7236 17.3333 12 17.3333V17.3333ZM5.125 10C5.125 10.1768 5.05257 10.3464 4.92364 10.4714C4.7947 10.5964 4.61984 10.6667 4.4375 10.6667C4.25516 10.6667 4.0803 10.5964 3.95136 10.4714C3.82243 10.3464 3.75 10.1768 3.75 10C3.75 9.82319 3.82243 9.65362 3.95136 9.5286C4.0803 9.40357 4.25516 9.33333 4.4375 9.33333C4.61984 9.33333 4.7947 9.40357 4.92364 9.5286C5.05257 9.65362 5.125 9.82319 5.125 10V10Z" fill="current"/>
</svg>
