<svg width="24" height="24" viewBox="0 0 24 24" fill="none" xmlns="http://www.w3.org/2000/svg">
<path fill-rule="evenodd" clip-rule="evenodd" d="M12.01 13.1421L16.6192 17.7513C16.7729 17.8997 16.9787 17.9818 17.1923 17.9799C17.4059 17.9781 17.6103 17.8924 17.7614 17.7413C17.9124 17.5903 17.9981 17.3859 18 17.1723C18.0018 16.9587 17.9197 16.7528 17.7713 16.5992L13.1621 11.99L17.7713 7.38081C17.9197 7.22714 18.0018 7.02133 18 6.80769C17.9981 6.59406 17.9124 6.38971 17.7614 6.23864C17.6103 6.08758 17.4059 6.00189 17.1923 6.00003C16.9787 5.99817 16.7729 6.0803 16.6192 6.22872L12.01 10.8379L7.40083 6.22872C7.24647 6.08397 7.04185 6.00495 6.83027 6.00839C6.61869 6.01182 6.41674 6.09744 6.26716 6.24713C6.11758 6.39681 6.03211 6.59882 6.02882 6.8104C6.02554 7.02199 6.1047 7.22655 6.24956 7.38081L10.8579 11.99L6.24874 16.5992C6.17092 16.6743 6.10885 16.7642 6.06615 16.8636C6.02345 16.963 6.00097 17.07 6.00003 17.1781C5.99909 17.2863 6.01971 17.3936 6.06067 17.4938C6.10164 17.5939 6.16214 17.6849 6.23864 17.7614C6.31514 17.8379 6.40611 17.8984 6.50625 17.9393C6.60638 17.9803 6.71367 18.0009 6.82185 18C6.93004 17.999 7.03695 17.9766 7.13636 17.9339C7.23577 17.8911 7.32567 17.8291 7.40083 17.7513L12.01 13.1421Z" fill="url(#paint0_linear_123_807)"/>
<defs>
<linearGradient id="paint0_linear_123_807" x1="6.76667" y1="7.00599" x2="18.7542" y2="17.1047" gradientUnits="userSpaceOnUse">
<stop stop-color="#7117EA"/>
<stop offset="1" stop-color="#EA6060"/>
</linearGradient>
</defs>
</svg>
