<svg width="current" height="current" viewBox="0 0 24 24" fill="none"
    xmlns="http://www.w3.org/2000/svg">
    <path fill-rule="evenodd" clip-rule="evenodd" d="M23 4.8C23 4.32261 22.8344 3.86477 22.5397 3.52721C22.245 3.18964 21.8453 3 21.4286 3H2.57143C2.15466 3 1.75496 3.18964 1.46026 3.52721C1.16556 3.86477 1 4.32261 1 4.8V5.1906L1.05186 19.6662C1.14152 20.0492 1.33908 20.3876 1.61386 20.6288C1.88863 20.8699 2.22525 21.0004 2.57143 21H21.4286C21.7745 21 22.1107 20.8694 22.3852 20.6282C22.6597 20.387 22.857 20.0489 22.9466 19.6662L22.9986 5.19157L23 5.1906V4.8ZM21.8 4.79831C21.7996 4.59128 21.7262 4.42003 21.6358 4.31639C21.5496 4.21767 21.4704 4.2 21.4286 4.2H2.57143C2.52958 4.2 2.45043 4.21767 2.36424 4.3164C2.27352 4.42031 2.2 4.59221 2.2 4.8V5.1906L2.20035 5.28722L6.42329 8.18804L5.74385 9.17716L2.20558 6.74666L2.24622 18.0903L6.94475 14.7784L7.63611 15.7592L2.27108 19.5409C2.30955 19.6233 2.35827 19.6855 2.40546 19.7269C2.47434 19.7873 2.53293 19.8 2.56988 19.8L2.57143 19.8H21.4286C21.4655 19.8 21.5243 19.7872 21.5931 19.7267C21.6403 19.6853 21.6889 19.6232 21.7274 19.5408L16.3654 15.761L17.0568 14.7802L21.7522 18.0902L21.793 6.74819L18.2563 9.17888L17.5766 8.18992L21.7982 5.2885L21.8 4.8C21.8 4.79944 21.8 4.79887 21.8 4.79831Z" fill="current"/>
    <path d="M12 11.4593C14.2716 5.38352 19.7344 10.0191 12 16.5C4.26562 10.0191 9.72836 5.38352 12 11.4593Z" fill="current"/>
</svg>
