<svg width="current" height="current" viewBox="0 0 60 60" fill="none"
    xmlns="http://www.w3.org/2000/svg">
    <path fill-rule="evenodd" clip-rule="evenodd" d="M25.851 29.9359C26.1678 30.1994 26.2085 30.6667 25.9417 30.9796C20.2511 37.6558 16.9953 44.7548 15.1627 50.1897C14.2468 52.9058 13.6878 55.202 13.3583 56.8155C13.1935 57.6221 13.0862 58.2576 13.0203 58.6891C12.9874 58.9048 12.9648 59.0695 12.9506 59.179C12.9435 59.2338 12.9385 59.2748 12.9353 59.3014L12.9319 59.3306L12.9312 59.337L12.9311 59.3382C12.8869 59.7448 12.5174 60.0392 12.1056 59.9958C11.6938 59.9523 11.3956 59.5873 11.4396 59.1805L12.1854 59.2592C11.4396 59.1805 11.4396 59.1808 11.4396 59.1805L11.4401 59.1758L11.4413 59.1656L11.4456 59.1288C11.4493 59.0971 11.455 59.0509 11.4628 58.9909C11.4783 58.8708 11.5024 58.6952 11.5371 58.4682C11.6064 58.0143 11.7179 57.3546 11.8879 56.5225C12.2277 54.8586 12.8016 52.503 13.7395 49.7216C15.6145 44.1612 18.95 36.8819 24.7942 30.0255C25.061 29.7126 25.5341 29.6725 25.851 29.9359Z" fill="current"/>
    <path fill-rule="evenodd" clip-rule="evenodd" d="M49.6014 1.51862C49.4458 1.46981 49.2827 1.45305 49.1212 1.46907L27.4653 3.60724C27.4653 3.60724 27.4653 3.60723 27.4653 3.60724C21.6274 4.18454 16.2482 7.11913 12.513 11.7709C8.77734 16.4232 6.99316 22.4111 7.55668 28.4173C8.72881 40.9186 19.7597 50.0466 31.9205 48.845C44.3207 47.6196 53.6375 36.2745 52.442 23.5241L50.4868 2.65817C50.4859 2.65091 50.4851 2.64361 50.4844 2.63628C50.4684 2.46449 50.4196 2.29817 50.3412 2.14687C50.2629 1.99559 50.1569 1.86262 50.0298 1.75506C49.9027 1.64753 49.7571 1.56744 49.6014 1.51862ZM51.9296 2.46967C51.8933 2.12096 51.7923 1.782 51.6314 1.47111C51.4658 1.15133 51.24 0.867184 50.9662 0.635416C50.6923 0.403614 50.3757 0.228825 50.0344 0.121765C49.6932 0.0147321 49.3344 -0.0223243 48.9788 0.0129182C48.9789 0.0129063 48.9787 0.0129301 48.9788 0.0129182L27.3231 2.15106C21.092 2.76722 15.3583 5.89881 11.3815 10.8515C7.40505 15.8036 5.50968 22.1716 6.10858 28.5548C7.35545 41.8533 19.0909 51.5829 32.0627 50.3012C45.2696 48.9961 55.1599 36.9299 53.8902 23.3867C53.8902 23.3867 53.8902 23.3867 53.8902 23.3867L51.9325 2.49586C51.9317 2.48708 51.9308 2.47835 51.9296 2.46967Z" fill="current"/>
    <path d="M31.0916 23.8767C46.9304 13.3004 48.6525 33.0738 21.5673 35.7164C18.9732 7.91405 38.2134 5.91084 31.0916 23.8767Z" fill="current"/>
</svg>
