<svg width="current" height="current" viewBox="0 0 24 24" fill="none"
    xmlns="http://www.w3.org/2000/svg">
    <path fill-rule="evenodd" clip-rule="evenodd" d="M15.5134 4.72727C15.5134 4.32561 15.8797 4 16.3316 4H20.1818C20.6337 4 21 4.32561 21 4.72727V8.14973C21 8.55139 20.6337 8.877 20.1818 8.877C19.7299 8.877 19.3636 8.55139 19.3636 8.14973V6.48306L15.9475 9.5196C15.628 9.80362 15.11 9.80362 14.7904 9.5196C14.4709 9.23558 14.4709 8.7751 14.7904 8.49108L18.2066 5.45454H16.3316C15.8797 5.45454 15.5134 5.12893 15.5134 4.72727ZM6.70588 6.31016C6.15701 6.31016 5.63062 6.50397 5.24251 6.84895C4.8544 7.19394 4.63636 7.66184 4.63636 8.14973V17.5169L7.08991 15.336C7.24335 15.1996 7.45145 15.123 7.66845 15.123H16.3316C16.8804 15.123 17.4068 14.9292 17.7949 14.5842C18.183 14.2392 18.4011 13.7713 18.4011 13.2834V10.7166C18.4011 10.3149 18.7674 9.9893 19.2193 9.9893C19.6711 9.9893 20.0374 10.3149 20.0374 10.7166V13.2834C20.0374 14.1571 19.647 14.9949 18.952 15.6127C18.257 16.2305 17.3144 16.5775 16.3316 16.5775H8.00735L4.39672 19.787C4.16273 19.995 3.81081 20.0572 3.50508 19.9446C3.19934 19.832 3 19.5669 3 19.2727V8.14973C3 7.27607 3.39044 6.4382 4.08543 5.82044C4.78042 5.20267 5.72302 4.85561 6.70588 4.85561H13.4439C13.8957 4.85561 14.262 5.18122 14.262 5.58289C14.262 5.98455 13.8957 6.31016 13.4439 6.31016H6.70588Z" fill="current"/>
</svg>
