<svg width="47" height="45" viewBox="0 0 47 45" fill="none" xmlns="http://www.w3.org/2000/svg">
<g clip-path="url(#clip0_413_1701)">
<path d="M32.9287 14.1429L23.9287 5.14288L14.9287 14.1429H16.9287V21.1429C16.9287 21.6733 17.1394 22.182 17.5145 22.5571C17.8896 22.9322 18.3983 23.1429 18.9287 23.1429H24.9287" stroke="#D4D4D4" stroke-width="2" stroke-linecap="round" stroke-linejoin="round"/>
<path d="M20.9287 23.1429V17.1429C20.9287 16.6125 21.1394 16.1037 21.5145 15.7287C21.8896 15.3536 22.3983 15.1429 22.9287 15.1429H24.9287C25.3187 15.1429 25.6827 15.2549 25.9897 15.4469M30.9227 23.6429L33.4407 21.0629C33.7532 20.7392 33.9282 20.3071 33.9289 19.8572C33.9297 19.4073 33.7561 18.9746 33.4447 18.6499C33.2932 18.4916 33.1113 18.3656 32.91 18.2793C32.7086 18.193 32.4919 18.1483 32.2728 18.1479C32.0537 18.1474 31.8368 18.1912 31.635 18.2766C31.4333 18.362 31.2509 18.4873 31.0987 18.6449L30.9307 18.8169L30.7627 18.6449C30.6112 18.4867 30.4292 18.3607 30.2278 18.2745C30.0264 18.1883 29.8096 18.1437 29.5906 18.1434C29.3715 18.143 29.1546 18.1869 28.9529 18.2724C28.7512 18.3578 28.5688 18.4832 28.4167 18.6409C28.1045 18.9645 27.9297 19.3964 27.929 19.8461C27.9282 20.2957 28.1016 20.7282 28.4127 21.0529L30.9227 23.6429Z" stroke="#D4D4D4" stroke-width="2" stroke-linecap="round" stroke-linejoin="round"/>
</g>
<path d="M27.6631 38.4707H19.2959V41.9434H27.6631V38.4707ZM17.9424 37.541H29.0166V36.6797H24.0127V35.7432C26.1934 35.6611 27.417 35.0869 27.417 34.0273C27.417 32.8994 25.9951 32.3184 23.4795 32.3047C20.957 32.3184 19.5283 32.8994 19.5283 34.0273C19.5283 35.0869 20.7588 35.6611 22.9463 35.7432V36.6797H17.9424V37.541ZM18.5166 31.8125H28.374V30.9785H24.0127V29.7754H22.9463V30.9785H18.5166V31.8125ZM20.3623 41.1094V39.3047H26.6104V41.1094H20.3623ZM20.6768 34.0273C20.6699 33.3984 21.6953 33.0703 23.4795 33.0566C25.2637 33.0703 26.2754 33.3984 26.2822 34.0273C26.2754 34.6494 25.2637 34.998 23.4795 34.998C21.6953 34.998 20.6699 34.6494 20.6768 34.0273Z" fill="#D4D4D4"/>
<defs>
<clipPath id="clip0_413_1701">
<rect width="24" height="24" fill="white" transform="translate(11.5)"/>
</clipPath>
</defs>
</svg>
