<svg width="46" height="45" viewBox="0 0 46 45" fill="none" xmlns="http://www.w3.org/2000/svg">
<path d="M28.8501 5H16.8501C15.7455 5 14.8501 5.89543 14.8501 7V19C14.8501 20.1046 15.7455 21 16.8501 21H28.8501C29.9547 21 30.8501 20.1046 30.8501 19V7C30.8501 5.89543 29.9547 5 28.8501 5Z" stroke="#D4D4D4" stroke-width="2" stroke-linecap="round" stroke-linejoin="round"/>
<path d="M26.8501 3V7M18.8501 3V7M14.8501 11H30.8501M18.8501 15H20.8501V17H18.8501V15Z" stroke="#D4D4D4" stroke-width="2" stroke-linecap="round" stroke-linejoin="round"/>
<path d="M14.688 30.4043C12.8491 30.4111 11.5229 31.5186 11.5298 33.0977C11.5229 34.6836 12.8491 35.7773 14.688 35.7773C16.5063 35.7773 17.8257 34.6836 17.8325 33.0977C17.8257 31.5186 16.5063 30.4111 14.688 30.4043ZM12.5825 33.0977C12.5688 32.0449 13.4644 31.2998 14.688 31.3066C15.8911 31.2998 16.7935 32.0449 16.7935 33.0977C16.7935 34.1641 15.8911 34.9023 14.688 34.9023C13.4644 34.9023 12.5688 34.1641 12.5825 33.0977ZM13.3755 37.6504H20.2114V38.9082H13.4028V41.9434H21.7153V41.082H14.4556V39.7148H21.2778V36.7891H13.3755V37.6504ZM20.2114 36.2012H21.2778V29.9531H20.2114V36.2012ZM33.4185 29.9531H32.3384V33.125H29.8911V34.0137H32.3384V37.1992H33.4185V29.9531ZM23.397 36.2285L23.9575 37.0898C25.4067 36.5361 26.5347 35.4014 27.0542 33.9795C27.5806 35.2305 28.6401 36.2559 30.0005 36.748L30.561 35.8867C28.7837 35.2783 27.5669 33.7676 27.5669 32.1816V31.7441H30.2876V30.8418H23.7388V31.7441H26.4868V32.1953C26.4868 33.9316 25.2017 35.5791 23.397 36.2285ZM25.311 39.8379C25.3042 41.2734 26.856 42.0938 29.3853 42.1074C31.9077 42.0938 33.4595 41.2734 33.4595 39.8379C33.4595 38.4092 31.9077 37.5752 29.3853 37.582C26.856 37.5752 25.3042 38.4092 25.311 39.8379ZM26.3774 39.8379C26.3706 38.9492 27.519 38.416 29.3853 38.416C31.2446 38.416 32.3931 38.9492 32.3931 39.8379C32.3931 40.7197 31.2446 41.2529 29.3853 41.2461C27.519 41.2529 26.3706 40.7197 26.3774 39.8379Z" fill="#D4D4D4"/>
</svg>
