<svg width="current" height="current" viewBox="0 0 46 45" fill="none" xmlns="http://www.w3.org/2000/svg">
<g clip-path="url(#clip0_361_890)">
<path d="M26.15 10H26.16M23.65 22H18.15C17.3544 22 16.5913 21.6839 16.0287 21.1213C15.4661 20.5587 15.15 19.7957 15.15 19V9C15.15 8.20435 15.4661 7.44129 16.0287 6.87868C16.5913 6.31607 17.3544 6 18.15 6H28.15C28.9457 6 29.7087 6.31607 30.2713 6.87868C30.834 7.44129 31.15 8.20435 31.15 9V14" stroke="#D4D4D4" stroke-width="2" stroke-linecap="round" stroke-linejoin="round"/>
<path d="M15.15 16.9998L19.15 12.9998C20.078 12.1068 21.222 12.1068 22.15 12.9998L24.65 15.4998M30.144 23.4998L32.662 20.9198C32.9745 20.5962 33.1495 20.164 33.1502 19.7141C33.151 19.2642 32.9774 18.8315 32.666 18.5068C32.5145 18.3486 32.3327 18.2225 32.1313 18.1362C31.9299 18.05 31.7132 18.0053 31.4941 18.0048C31.275 18.0043 31.0581 18.0481 30.8563 18.1335C30.6546 18.2189 30.4722 18.3442 30.32 18.5018L30.152 18.6738L29.984 18.5018C29.8325 18.3436 29.6505 18.2177 29.4491 18.1315C29.2477 18.0453 29.031 18.0007 28.8119 18.0003C28.5928 17.9999 28.3759 18.0438 28.1742 18.1293C27.9725 18.2148 27.7901 18.3401 27.638 18.4978C27.3258 18.8214 27.151 19.2534 27.1503 19.703C27.1495 20.1527 27.3229 20.5852 27.634 20.9098L30.144 23.4998Z" stroke="#D4D4D4" stroke-width="2" stroke-linecap="round" stroke-linejoin="round"/>
</g>
<path d="M21.8649 29.9668H20.8395V32.6602H19.2262V30.1992H18.2145V36.2012H19.2262V33.5488H20.8395V36.3516H21.8649V29.9668ZM11.6793 33.207C11.6725 34.7861 12.8209 35.8867 14.4547 35.873C16.0748 35.8867 17.2369 34.7861 17.2438 33.207C17.2369 31.6006 16.0748 30.541 14.4547 30.5547C12.8209 30.541 11.6725 31.6006 11.6793 33.207ZM12.65 33.207C12.6364 32.1543 13.4088 31.3887 14.4547 31.3887C15.4869 31.3887 16.2526 32.1543 16.2594 33.207C16.2526 34.2598 15.4869 35.0049 14.4547 35.0117C13.4088 35.0049 12.6364 34.2598 12.65 33.207ZM13.7985 37.7461H20.8121V38.9082H13.8258V41.9434H22.3571V41.082H14.8922V39.7422H21.8649V36.8848H13.7985V37.7461ZM25.3239 30.6504H24.2574V36.3242H29.7672V33.9453H32.6383V37.0078H33.7184V29.9531H32.6383V33.043H29.7672V30.6504H28.7145V32.5918H25.3239V30.6504ZM25.3239 35.4492V33.4531H28.7145V35.4492H25.3239ZM25.775 41.9434H33.7184V37.6094H25.775V41.9434ZM26.8414 41.0684V38.4707H32.6656V41.0684H26.8414Z" fill="#D4D4D4"/>
<defs>
<clipPath id="clip0_361_890">
<rect width="24" height="24" fill="white" transform="translate(11.15)"/>
</clipPath>
</defs>
</svg>
