<svg width="46" height="45" viewBox="0 0 46 45" fill="none" xmlns="http://www.w3.org/2000/svg">
<path d="M15.1997 6H31.1997M15.1997 12H31.1997M15.1997 18H31.1997" stroke="#D4D4D4" stroke-width="2" stroke-linecap="round" stroke-linejoin="round"/>
<path d="M11.7358 31.1152H6.15771V39.127H7.0874C9.41846 39.127 10.9019 39.0449 12.6929 38.7031L12.5562 37.8145C10.8745 38.1426 9.43213 38.2178 7.23779 38.2109V32.0176H11.7358V31.1152ZM11.0112 35.2715H14.5522V42.1348H15.6323V29.9531H14.5522V34.3828H11.0112V35.2715ZM28.771 39.6602H23.6987V37.0352H27.4038V30.8145H26.3511V33.0156H20.0347V30.8145H18.9546V37.0352H22.646V39.6602H17.6421V40.5488H28.771V39.6602ZM20.0347 36.1602V33.8906H26.3511V36.1602H20.0347ZM39.7905 29.9531H38.7104V42.1074H39.7905V29.9531ZM29.8921 38.9492L30.48 39.8242C34.5542 37.8691 36.1812 34.7725 36.1948 31.2793H30.4526V32.1543H35.1011C34.8618 35.0596 33.1802 37.3906 29.8921 38.9492Z" fill="#D4D4D4"/>
</svg>