<svg width="46" height="45" viewBox="0 0 46 45" fill="none" xmlns="http://www.w3.org/2000/svg">
<path d="M28.102 17.2918C28.102 17.2918 28.179 17.2368 28.302 17.1428C30.145 15.7178 31.3 13.6528 31.3 11.3538C31.3 7.06784 27.27 3.58984 22.302 3.58984C17.332 3.58984 13.3 7.06784 13.3 11.3538C13.3 15.6418 17.33 18.9998 22.3 18.9998C22.724 18.9998 23.42 18.9718 24.388 18.9158C25.65 19.7358 27.492 20.4088 29.104 20.4088C29.603 20.4088 29.838 19.9988 29.518 19.5808C29.032 18.9848 28.362 18.0298 28.102 17.2908V17.2918Z" stroke="#D4D4D4" stroke-width="2" stroke-linecap="round" stroke-linejoin="round"/>
<path d="M17.8 13.5C20.3 16 24.3 16 26.8 13.5" stroke="#D4D4D4" stroke-width="2" stroke-linecap="round" stroke-linejoin="round"/>
<path d="M14.7473 33.6855V33.125H17.0852V32.2363H14.761V30.4043H13.7356V32.2363H11.384V33.125H13.7356V33.6855C13.7288 35.6953 12.7375 37.8076 11.0969 38.7715L11.7395 39.5645C12.9495 38.8535 13.8245 37.5 14.2551 35.9414C14.6995 37.4043 15.5745 38.6553 16.7844 39.3184L17.4133 38.5117C15.7454 37.623 14.7542 35.627 14.7473 33.6855ZM17.9192 41.4922H18.9446V35.791H20.5989V42.1074H21.6379V29.9531H20.5989V34.875H18.9446V30.2129H17.9192V41.4922ZM29.8274 30.8555H24.0032V36.625H24.9875C27.6741 36.6318 29.1643 36.5703 30.9348 36.2832L30.8254 35.4082C29.1165 35.6953 27.6672 35.7432 25.0833 35.7363V34.1367H29.4856V33.2617H25.0833V31.7305H29.8274V30.8555ZM25.179 39.8652C25.179 41.2803 26.717 42.0801 29.2942 42.0801C31.8235 42.0801 33.3889 41.2803 33.3821 39.8652C33.3889 38.4775 31.8235 37.6641 29.2942 37.6777C26.717 37.6641 25.179 38.4775 25.179 39.8652ZM26.2454 39.8652C26.2454 39.0381 27.3801 38.5254 29.2942 38.5254C31.1536 38.5254 32.3225 39.0381 32.3293 39.8652C32.3225 40.7266 31.1536 41.2324 29.2942 41.2324C27.3801 41.2324 26.2454 40.7266 26.2454 39.8652ZM32.261 37.5H33.3274V29.9668H32.261V37.5Z" fill="#D4D4D4"/>
</svg>
