<svg width="345" height="345" viewBox="0 0 345 345" fill="none" xmlns="http://www.w3.org/2000/svg">
<rect width="345" height="345" rx="50" fill="white"/>
<g filter="url(#filter0_d_374_3212)">
<path d="M109.568 251.64C111.318 251.64 112.598 251.96 113.408 252.6C114.262 253.197 114.795 253.944 115.008 254.84C115.222 255.693 115.328 256.803 115.328 258.168C115.328 261.752 114.347 264.931 112.384 267.704C110.422 270.435 107.862 272.568 104.704 274.104C101.547 275.597 98.1976 276.344 94.6562 276.344C89.5363 276.344 85.7816 274.915 83.3923 272.056C81.0029 269.197 79.8083 265.699 79.8083 261.56C79.8083 256.653 81.1096 251.981 83.7123 247.544C86.3576 243.064 89.6003 239.48 93.4403 236.792C97.3229 234.061 100.971 232.696 104.384 232.696C109.163 232.696 112.619 233.656 114.752 235.576C116.886 237.453 117.952 240.205 117.952 243.832C117.952 245.112 117.462 246.2 116.48 247.096C115.542 247.992 114.262 248.44 112.64 248.44C111.36 248.44 110.486 248.099 110.016 247.416C109.59 246.733 109.376 245.859 109.376 244.792L109.44 242.744C109.44 241.976 109.014 241.229 108.16 240.504C107.307 239.779 106.518 239.416 105.792 239.416C103.403 239.416 100.779 240.504 97.9203 242.68C95.0616 244.813 92.6509 247.715 90.6883 251.384C88.7256 255.011 87.7443 258.957 87.7443 263.224C87.7443 265.187 88.5123 266.787 90.0483 268.024C91.5843 269.261 93.5256 269.88 95.8723 269.88C97.5363 269.88 99.2856 269.389 101.12 268.408C102.955 267.384 104.491 266.019 105.728 264.312C107.008 262.563 107.648 260.707 107.648 258.744C107.051 258.829 106.176 259.021 105.024 259.32C103.36 259.747 101.931 260.067 100.736 260.28C99.5843 260.493 98.4323 260.6 97.2803 260.6C95.9149 260.6 94.8909 260.429 94.2083 260.088C93.5683 259.704 93.2483 259.043 93.2483 258.104C93.2483 257.464 93.3976 256.717 93.6963 255.864C94.0376 255.011 94.4429 254.392 94.9123 254.008C97.0456 253.453 99.4989 252.92 102.272 252.408C105.088 251.896 107.52 251.64 109.568 251.64ZM125.059 273.176C125.027 273.368 124.947 273.752 124.819 274.328C124.723 274.872 124.451 275.256 124.003 275.48C123.587 275.704 122.915 275.816 121.987 275.816C120.931 275.816 120.163 275.704 119.683 275.48C119.203 275.256 118.963 274.776 118.963 274.04L121.267 264.872C122.547 259.592 123.395 256.232 123.811 254.792L122.611 253.352C122.515 253.256 122.467 253.144 122.467 253.016C122.467 252.696 122.819 252.44 123.523 252.248C124.227 252.024 125.203 251.912 126.451 251.912C127.571 251.912 128.323 252.232 128.707 252.872C129.091 253.48 129.331 254.28 129.427 255.272L129.091 256.52C130.115 255.272 131.299 254.248 132.643 253.448C134.019 252.616 135.235 252.2 136.291 252.2C137.667 252.2 138.739 252.44 139.507 252.92C140.275 253.4 140.659 254.024 140.659 254.792C140.659 255.464 140.419 256.168 139.939 256.904C139.491 257.608 138.915 258.216 138.211 258.728C137.507 259.208 136.819 259.48 136.147 259.544C135.507 259.544 135.075 259.464 134.851 259.304C134.627 259.144 134.515 258.904 134.515 258.584L134.803 257C132.243 257.704 129.923 259.4 127.843 262.088L125.059 273.176ZM148.395 276.008C145.579 276.008 143.387 275.048 141.819 273.128C140.251 271.208 139.467 268.76 139.467 265.784C139.467 263.288 140.059 260.936 141.243 258.728C142.459 256.52 144.107 254.744 146.187 253.4C148.267 252.056 150.555 251.384 153.051 251.384C155.515 251.384 157.531 252.2 159.099 253.832C160.699 255.432 161.499 257.8 161.499 260.936C161.499 263.144 160.891 265.432 159.675 267.8C158.459 270.168 156.827 272.136 154.779 273.704C152.763 275.24 150.635 276.008 148.395 276.008ZM149.115 272.168C150.139 272.168 151.163 271.528 152.187 270.248C153.243 268.968 154.107 267.352 154.779 265.4C155.451 263.448 155.787 261.544 155.787 259.688C155.787 256.84 154.603 255.416 152.235 255.416C150.923 255.416 149.723 256.04 148.635 257.288C147.547 258.536 146.683 260.088 146.043 261.944C145.403 263.768 145.083 265.48 145.083 267.08C145.083 268.008 145.291 268.872 145.707 269.672C146.123 270.44 146.635 271.048 147.243 271.496C147.883 271.944 148.507 272.168 149.115 272.168ZM179.01 264.632C177.89 268.152 176.45 270.904 174.69 272.888C172.962 274.872 171.202 275.864 169.41 275.864C166.21 275.864 164.61 272.984 164.61 267.224C164.61 264.792 164.754 262.552 165.042 260.504C165.33 258.424 165.73 256.328 166.242 254.216C166.37 253.64 166.69 253.16 167.202 252.776C167.746 252.392 168.45 252.2 169.314 252.2C170.978 252.2 171.81 252.936 171.81 254.408C171.81 254.632 171.682 255.256 171.426 256.28C170.946 258.616 170.562 260.616 170.274 262.28C170.018 263.944 169.89 265.528 169.89 267.032C169.89 268.216 169.986 269.192 170.178 269.96C170.402 270.696 170.754 271.064 171.234 271.064C172.098 271.064 172.978 270.104 173.874 268.184C174.802 266.264 175.634 263.976 176.37 261.32C177.106 258.632 177.682 256.152 178.098 253.88C178.162 253.464 178.466 253.096 179.01 252.776C179.586 252.456 180.082 252.296 180.498 252.296C181.426 252.296 182.194 252.504 182.802 252.92C183.442 253.304 183.762 253.864 183.762 254.6C183.762 254.76 183.666 255.256 183.474 256.088C182.994 258.648 182.61 260.824 182.322 262.616C182.066 264.376 181.938 266.024 181.938 267.56C181.938 268.584 182.098 269.432 182.418 270.104C182.77 270.744 183.202 271.064 183.714 271.064C184.77 271.064 185.73 270.152 186.594 268.328C187.458 266.504 188.162 264.248 188.706 261.56C189.25 258.84 189.586 256.248 189.714 253.784C189.746 253.368 189.954 253.064 190.338 252.872C190.754 252.648 191.25 252.536 191.826 252.536C192.53 252.536 193.218 252.664 193.89 252.92C194.562 253.144 194.914 253.4 194.946 253.688C194.306 260.472 193.122 265.864 191.394 269.864C189.666 273.864 186.898 275.864 183.09 275.864C180.242 275.864 178.818 273.592 178.818 269.048C178.818 267.64 178.946 266.168 179.202 264.632H179.01ZM202.261 246.488C202.261 245.496 202.565 244.616 203.173 243.848C203.813 243.08 204.693 242.696 205.813 242.696C206.997 242.696 208.021 243.064 208.885 243.8C209.781 244.536 210.229 245.368 210.229 246.296C210.229 247.224 209.781 248.024 208.885 248.696C207.989 249.368 206.949 249.704 205.765 249.704C204.613 249.704 203.733 249.416 203.125 248.84C202.549 248.232 202.261 247.448 202.261 246.488ZM197.701 271.784C197.701 271.208 199.125 265.448 201.973 254.504L201.685 252.728C201.685 252.376 201.893 252.104 202.309 251.912C202.725 251.72 203.525 251.624 204.709 251.624C205.637 251.624 206.309 251.88 206.725 252.392C207.173 252.904 207.397 253.512 207.397 254.216C207.397 254.408 207.365 254.664 207.301 254.984L203.029 272.264L203.317 274.04C203.317 274.392 203.109 274.664 202.693 274.856C202.277 275.048 201.477 275.144 200.293 275.144C199.237 275.144 198.549 274.84 198.229 274.232C197.909 273.592 197.733 272.776 197.701 271.784ZM214.759 251.72C216.263 250.92 217.511 250.52 218.503 250.52C219.591 250.52 220.199 251.08 220.327 252.2L218.407 259.352C220.519 256.312 222.487 254.216 224.311 253.064C226.135 251.88 227.767 251.288 229.207 251.288C230.903 251.288 232.135 251.608 232.903 252.248C233.703 252.856 234.119 253.832 234.151 255.176C233.063 258.12 232.151 260.92 231.415 263.576C230.711 266.232 230.359 268.68 230.359 270.92V272.024C230.359 272.92 230.103 273.512 229.591 273.8C229.111 274.056 228.135 274.184 226.663 274.184C226.087 274.184 225.543 274.088 225.031 273.896C224.551 273.704 224.311 273.384 224.311 272.936C224.311 271.656 224.599 269.784 225.175 267.32C225.751 264.856 226.391 262.424 227.095 260.024C227.831 257.624 228.199 256.488 228.199 256.616C228.199 256.168 227.943 255.944 227.431 255.944C226.759 255.944 225.671 256.536 224.167 257.72C222.663 258.904 221.127 260.76 219.559 263.288C217.991 265.784 216.743 268.92 215.815 272.696C215.783 272.888 215.719 273.24 215.623 273.752C215.527 274.264 215.271 274.632 214.855 274.856C214.439 275.048 213.767 275.144 212.839 275.144C211.783 275.144 210.999 275.032 210.487 274.808C209.975 274.584 209.719 274.104 209.719 273.368L211.159 267.224C211.543 265.56 212.039 263.448 212.647 260.888C213.255 258.296 213.959 255.24 214.759 251.72ZM241.301 285.896C239.829 285.896 238.437 285.576 237.125 284.936C235.845 284.296 234.773 283.464 233.909 282.44C233.013 281.448 232.373 280.44 231.989 279.416C232.021 278.84 232.309 278.264 232.853 277.688C233.365 277.144 234.277 276.872 235.589 276.872C236.005 276.872 236.357 277.032 236.645 277.352C236.965 277.672 237.317 278.184 237.701 278.888C238.213 279.848 238.741 280.584 239.285 281.096C239.861 281.64 240.645 281.912 241.637 281.912C242.757 281.912 243.829 281.464 244.853 280.568C245.909 279.704 246.805 278.52 247.541 277.016C248.309 275.512 248.837 273.848 249.125 272.024C248.421 272.984 247.605 273.72 246.677 274.232C245.781 274.744 244.933 275 244.133 275C241.573 275 239.541 274.44 238.037 273.32C236.565 272.168 235.829 270.136 235.829 267.224C235.829 264.6 236.549 262.152 237.989 259.88C239.461 257.608 241.413 255.8 243.845 254.456C246.277 253.112 248.885 252.44 251.669 252.44C253.493 252.44 254.837 252.808 255.701 253.544C256.597 254.28 257.141 255.208 257.333 256.328C257.877 256.584 258.165 256.84 258.197 257.096C258.197 257.192 258.133 257.528 258.005 258.104C257.397 260.728 256.117 265.912 254.165 273.656L253.637 275.768C252.837 278.872 251.301 281.336 249.029 283.16C246.789 284.984 244.213 285.896 241.301 285.896ZM252.149 257.384C251.893 256.936 251.637 256.648 251.381 256.52C251.157 256.392 250.805 256.328 250.325 256.328C248.821 256.328 247.365 256.824 245.957 257.816C244.549 258.776 243.413 260.04 242.549 261.608C241.685 263.144 241.253 264.728 241.253 266.36C241.253 267.544 241.461 268.568 241.877 269.432C242.325 270.296 243.029 270.792 243.989 270.92C245.269 270.696 246.469 270.12 247.589 269.192C248.741 268.264 249.525 267.064 249.941 265.592L252.149 257.384Z" fill="url(#paint0_linear_374_3212)"/>
</g>
<path d="M129.047 220.875C129.047 220.875 133.234 183.188 162.547 149.688" stroke="url(#paint1_linear_374_3212)" stroke-width="3" stroke-linecap="round" stroke-linejoin="round"/>
<path d="M228.214 80.5268L233.189 132.242C236.321 164.788 211.916 193.765 179.379 196.897C147.445 199.971 118.518 176.63 115.444 144.696C113.968 129.361 118.643 114.067 128.442 102.179C138.241 90.2913 152.361 82.7828 167.696 81.3056L222.728 76.0126C223.385 75.9491 224.049 76.0157 224.68 76.2086C225.312 76.4016 225.899 76.7171 226.408 77.1371C226.918 77.5571 227.339 78.0734 227.649 78.6564C227.959 79.2395 228.151 79.8779 228.214 80.5351V80.5268Z" stroke="url(#paint2_linear_374_3212)" stroke-width="3" stroke-linecap="round" stroke-linejoin="round"/>
<path d="M177.092 133.285C217.342 107.103 221.719 156.052 152.889 162.594C146.297 93.769 195.19 88.81 177.092 133.285Z" fill="url(#paint3_linear_374_3212)"/>
<defs>
<filter id="filter0_d_374_3212" x="73.8081" y="230.696" width="190.389" height="65.2" filterUnits="userSpaceOnUse" color-interpolation-filters="sRGB">
<feFlood flood-opacity="0" result="BackgroundImageFix"/>
<feColorMatrix in="SourceAlpha" type="matrix" values="0 0 0 0 0 0 0 0 0 0 0 0 0 0 0 0 0 0 127 0" result="hardAlpha"/>
<feOffset dy="4"/>
<feGaussianBlur stdDeviation="3"/>
<feComposite in2="hardAlpha" operator="out"/>
<feColorMatrix type="matrix" values="0 0 0 0 0.996078 0 0 0 0 0.231373 0 0 0 0 0.427451 0 0 0 0.2 0"/>
<feBlend mode="normal" in2="BackgroundImageFix" result="effect1_dropShadow_374_3212"/>
<feBlend mode="normal" in="SourceGraphic" in2="effect1_dropShadow_374_3212" result="shape"/>
</filter>
<linearGradient id="paint0_linear_374_3212" x1="60.8444" y1="206.557" x2="158.022" y2="384.651" gradientUnits="userSpaceOnUse">
<stop stop-color="#7117EA"/>
<stop offset="1" stop-color="#EA6060"/>
</linearGradient>
<linearGradient id="paint1_linear_374_3212" x1="131.187" y1="155.655" x2="180.632" y2="175.257" gradientUnits="userSpaceOnUse">
<stop stop-color="#7117EA"/>
<stop offset="1" stop-color="#EA6060"/>
</linearGradient>
<linearGradient id="paint2_linear_374_3212" x1="122.734" y1="86.1481" x2="243.257" y2="185.254" gradientUnits="userSpaceOnUse">
<stop stop-color="#7117EA"/>
<stop offset="1" stop-color="#EA6060"/>
</linearGradient>
<linearGradient id="paint3_linear_374_3212" x1="170.521" y1="106.595" x2="188.435" y2="174.465" gradientUnits="userSpaceOnUse">
<stop stop-color="#7117EA"/>
<stop offset="1" stop-color="#EA6060"/>
</linearGradient>
</defs>
</svg>
