<svg width="345" height="345" viewBox="0 0 345 345" fill="none" xmlns="http://www.w3.org/2000/svg">
<rect width="345" height="345" rx="50" fill="url(#paint0_linear_335_2866)"/>
<path d="M93.5868 170.96C96.2108 170.96 98.1308 171.44 99.3468 172.4C100.627 173.296 101.427 174.416 101.747 175.76C102.067 177.04 102.227 178.704 102.227 180.752C102.227 186.128 100.755 190.896 97.8108 195.056C94.8668 199.152 91.0268 202.352 86.2908 204.656C81.5548 206.896 76.5308 208.016 71.2188 208.016C63.5388 208.016 57.9068 205.872 54.3228 201.584C50.7388 197.296 48.9468 192.048 48.9468 185.84C48.9468 178.48 50.8988 171.472 54.8028 164.816C58.7708 158.096 63.6348 152.72 69.3948 148.688C75.2188 144.592 80.6908 142.544 85.8108 142.544C92.9788 142.544 98.1628 143.984 101.363 146.864C104.563 149.68 106.163 153.808 106.163 159.248C106.163 161.168 105.427 162.8 103.955 164.144C102.547 165.488 100.627 166.16 98.1948 166.16C96.2748 166.16 94.9628 165.648 94.2588 164.624C93.6188 163.6 93.2988 162.288 93.2988 160.688L93.3948 157.616C93.3948 156.464 92.7548 155.344 91.4748 154.256C90.1948 153.168 89.0108 152.624 87.9228 152.624C84.3388 152.624 80.4028 154.256 76.1148 157.52C71.8268 160.72 68.2108 165.072 65.2668 170.576C62.3228 176.016 60.8508 181.936 60.8508 188.336C60.8508 191.28 62.0028 193.68 64.3068 195.536C66.6108 197.392 69.5228 198.32 73.0428 198.32C75.5388 198.32 78.1628 197.584 80.9148 196.112C83.6668 194.576 85.9708 192.528 87.8268 189.968C89.7468 187.344 90.7068 184.56 90.7068 181.616C89.8108 181.744 88.4988 182.032 86.7708 182.48C84.2748 183.12 82.1308 183.6 80.3388 183.92C78.6108 184.24 76.8828 184.4 75.1548 184.4C73.1068 184.4 71.5708 184.144 70.5468 183.632C69.5868 183.056 69.1068 182.064 69.1068 180.656C69.1068 179.696 69.3308 178.576 69.7788 177.296C70.2908 176.016 70.8988 175.088 71.6028 174.512C74.8028 173.68 78.4828 172.88 82.6428 172.112C86.8668 171.344 90.5148 170.96 93.5868 170.96ZM115.735 203.568C115.693 203.824 115.586 204.336 115.415 205.104C115.287 205.829 114.925 206.341 114.327 206.64C113.773 206.939 112.877 207.088 111.639 207.088C110.231 207.088 109.207 206.939 108.567 206.64C107.927 206.341 107.607 205.701 107.607 204.72L110.679 192.496C112.386 185.456 113.517 180.976 114.071 179.056L112.471 177.136C112.343 177.008 112.279 176.859 112.279 176.688C112.279 176.261 112.749 175.92 113.687 175.664C114.626 175.365 115.927 175.216 117.591 175.216C119.085 175.216 120.087 175.643 120.599 176.496C121.111 177.307 121.431 178.373 121.559 179.696L121.111 181.36C122.477 179.696 124.055 178.331 125.847 177.264C127.682 176.155 129.303 175.6 130.711 175.6C132.546 175.6 133.975 175.92 134.999 176.56C136.023 177.2 136.535 178.032 136.535 179.056C136.535 179.952 136.215 180.891 135.575 181.872C134.978 182.811 134.21 183.621 133.271 184.304C132.333 184.944 131.415 185.307 130.519 185.392C129.666 185.392 129.09 185.285 128.791 185.072C128.493 184.859 128.343 184.539 128.343 184.112L128.727 182C125.314 182.939 122.221 185.2 119.447 188.784L115.735 203.568ZM146.849 207.344C143.095 207.344 140.172 206.064 138.081 203.504C135.991 200.944 134.945 197.68 134.945 193.712C134.945 190.384 135.735 187.248 137.313 184.304C138.935 181.36 141.132 178.992 143.905 177.2C146.679 175.408 149.729 174.512 153.057 174.512C156.343 174.512 159.031 175.6 161.121 177.776C163.255 179.909 164.321 183.067 164.321 187.248C164.321 190.192 163.511 193.243 161.889 196.4C160.268 199.557 158.092 202.181 155.361 204.272C152.673 206.32 149.836 207.344 146.849 207.344ZM147.809 202.224C149.175 202.224 150.54 201.371 151.905 199.664C153.313 197.957 154.465 195.803 155.361 193.2C156.257 190.597 156.705 188.059 156.705 185.584C156.705 181.787 155.127 179.888 151.969 179.888C150.22 179.888 148.62 180.72 147.169 182.384C145.719 184.048 144.567 186.117 143.713 188.592C142.86 191.024 142.433 193.307 142.433 195.44C142.433 196.677 142.711 197.829 143.265 198.896C143.82 199.92 144.503 200.731 145.313 201.328C146.167 201.925 146.999 202.224 147.809 202.224ZM187.669 192.176C186.176 196.869 184.256 200.539 181.909 203.184C179.605 205.829 177.259 207.152 174.869 207.152C170.603 207.152 168.469 203.312 168.469 195.632C168.469 192.389 168.661 189.403 169.045 186.672C169.429 183.899 169.963 181.104 170.645 178.288C170.816 177.52 171.243 176.88 171.925 176.368C172.651 175.856 173.589 175.6 174.741 175.6C176.96 175.6 178.069 176.581 178.069 178.544C178.069 178.843 177.899 179.675 177.557 181.04C176.917 184.155 176.405 186.821 176.021 189.04C175.68 191.259 175.509 193.371 175.509 195.376C175.509 196.955 175.637 198.256 175.893 199.28C176.192 200.261 176.661 200.752 177.301 200.752C178.453 200.752 179.627 199.472 180.821 196.912C182.059 194.352 183.168 191.301 184.149 187.76C185.131 184.176 185.899 180.869 186.453 177.84C186.539 177.285 186.944 176.795 187.669 176.368C188.437 175.941 189.099 175.728 189.653 175.728C190.891 175.728 191.915 176.005 192.725 176.56C193.579 177.072 194.005 177.819 194.005 178.8C194.005 179.013 193.877 179.675 193.621 180.784C192.981 184.197 192.469 187.099 192.085 189.488C191.744 191.835 191.573 194.032 191.573 196.08C191.573 197.445 191.787 198.576 192.213 199.472C192.683 200.325 193.259 200.752 193.941 200.752C195.349 200.752 196.629 199.536 197.781 197.104C198.933 194.672 199.872 191.664 200.597 188.08C201.323 184.453 201.771 180.997 201.941 177.712C201.984 177.157 202.261 176.752 202.773 176.496C203.328 176.197 203.989 176.048 204.757 176.048C205.696 176.048 206.613 176.219 207.509 176.56C208.405 176.859 208.875 177.2 208.917 177.584C208.064 186.629 206.485 193.819 204.181 199.152C201.877 204.485 198.187 207.152 193.109 207.152C189.312 207.152 187.413 204.123 187.413 198.064C187.413 196.187 187.584 194.224 187.925 192.176H187.669ZM218.671 167.984C218.671 166.661 219.077 165.488 219.887 164.464C220.741 163.44 221.914 162.928 223.407 162.928C224.986 162.928 226.351 163.419 227.503 164.4C228.698 165.381 229.295 166.491 229.295 167.728C229.295 168.965 228.698 170.032 227.503 170.928C226.309 171.824 224.922 172.272 223.343 172.272C221.807 172.272 220.634 171.888 219.823 171.12C219.055 170.309 218.671 169.264 218.671 167.984ZM212.591 201.712C212.591 200.944 214.49 193.264 218.287 178.672L217.903 176.304C217.903 175.835 218.181 175.472 218.735 175.216C219.29 174.96 220.357 174.832 221.935 174.832C223.173 174.832 224.069 175.173 224.623 175.856C225.221 176.539 225.519 177.349 225.519 178.288C225.519 178.544 225.477 178.885 225.391 179.312L219.695 202.352L220.079 204.72C220.079 205.189 219.802 205.552 219.247 205.808C218.693 206.064 217.626 206.192 216.047 206.192C214.639 206.192 213.722 205.787 213.295 204.976C212.869 204.123 212.634 203.035 212.591 201.712ZM235.335 174.96C237.34 173.893 239.004 173.36 240.327 173.36C241.777 173.36 242.588 174.107 242.759 175.6L240.199 185.136C243.015 181.083 245.639 178.288 248.071 176.752C250.503 175.173 252.679 174.384 254.599 174.384C256.86 174.384 258.503 174.811 259.527 175.664C260.593 176.475 261.148 177.776 261.191 179.568C259.74 183.493 258.524 187.227 257.543 190.768C256.604 194.309 256.135 197.573 256.135 200.56V202.032C256.135 203.227 255.793 204.016 255.111 204.4C254.471 204.741 253.169 204.912 251.207 204.912C250.439 204.912 249.713 204.784 249.031 204.528C248.391 204.272 248.071 203.845 248.071 203.248C248.071 201.541 248.455 199.045 249.223 195.76C249.991 192.475 250.844 189.232 251.783 186.032C252.764 182.832 253.255 181.317 253.255 181.488C253.255 180.891 252.913 180.592 252.231 180.592C251.335 180.592 249.884 181.381 247.879 182.96C245.873 184.539 243.825 187.013 241.735 190.384C239.644 193.712 237.98 197.893 236.743 202.928C236.7 203.184 236.615 203.653 236.487 204.336C236.359 205.019 236.017 205.509 235.463 205.808C234.908 206.064 234.012 206.192 232.775 206.192C231.367 206.192 230.321 206.043 229.639 205.744C228.956 205.445 228.615 204.805 228.615 203.824L230.535 195.632C231.047 193.413 231.708 190.597 232.519 187.184C233.329 183.728 234.268 179.653 235.335 174.96ZM270.725 220.528C268.762 220.528 266.906 220.101 265.157 219.248C263.45 218.395 262.021 217.285 260.869 215.92C259.674 214.597 258.821 213.253 258.309 211.888C258.351 211.12 258.735 210.352 259.461 209.584C260.143 208.859 261.359 208.496 263.109 208.496C263.663 208.496 264.133 208.709 264.517 209.136C264.943 209.563 265.413 210.245 265.925 211.184C266.607 212.464 267.311 213.445 268.037 214.128C268.805 214.853 269.85 215.216 271.173 215.216C272.666 215.216 274.095 214.619 275.461 213.424C276.869 212.272 278.063 210.693 279.045 208.688C280.069 206.683 280.773 204.464 281.157 202.032C280.218 203.312 279.13 204.293 277.893 204.976C276.698 205.659 275.567 206 274.501 206C271.087 206 268.378 205.253 266.373 203.76C264.41 202.224 263.429 199.515 263.429 195.632C263.429 192.133 264.389 188.869 266.309 185.84C268.271 182.811 270.874 180.4 274.117 178.608C277.359 176.816 280.837 175.92 284.549 175.92C286.981 175.92 288.773 176.411 289.925 177.392C291.119 178.373 291.845 179.611 292.101 181.104C292.826 181.445 293.21 181.787 293.253 182.128C293.253 182.256 293.167 182.704 292.997 183.472C292.186 186.971 290.479 193.883 287.877 204.208L287.173 207.024C286.106 211.163 284.058 214.448 281.029 216.88C278.042 219.312 274.607 220.528 270.725 220.528ZM285.189 182.512C284.847 181.915 284.506 181.531 284.165 181.36C283.866 181.189 283.397 181.104 282.757 181.104C280.751 181.104 278.81 181.765 276.933 183.088C275.055 184.368 273.541 186.053 272.389 188.144C271.237 190.192 270.661 192.304 270.661 194.48C270.661 196.059 270.938 197.424 271.493 198.576C272.09 199.728 273.029 200.389 274.309 200.56C276.015 200.261 277.615 199.493 279.109 198.256C280.645 197.019 281.69 195.419 282.245 193.456L285.189 182.512Z" fill="white"/>
<path d="M259.208 154.625C259.208 154.625 260.938 139.062 273.042 125.229" stroke="#F8F8F8" stroke-width="1.5" stroke-linecap="round" stroke-linejoin="round"/>
<path d="M300.158 96.6702L302.212 118.025C303.506 131.465 293.428 143.43 279.992 144.724C266.806 145.993 254.861 136.355 253.592 123.168C252.982 116.836 254.912 110.52 258.959 105.611C263.005 100.702 268.836 97.6019 275.168 96.9919L297.893 94.8062C298.164 94.78 298.438 94.8075 298.699 94.8871C298.96 94.9668 299.202 95.0971 299.412 95.2705C299.623 95.444 299.797 95.6572 299.925 95.8979C300.053 96.1387 300.132 96.4023 300.158 96.6737V96.6702Z" stroke="#F8F8F8" stroke-width="1.5" stroke-linecap="round" stroke-linejoin="round"/>
<path d="M279.048 118.456C295.669 107.645 297.476 127.857 269.053 130.559C266.331 102.138 286.521 100.091 279.048 118.456Z" fill="white"/>
<defs>
<linearGradient id="paint0_linear_335_2866" x1="22.0417" y1="28.9222" x2="366.684" y2="319.26" gradientUnits="userSpaceOnUse">
<stop stop-color="#7117EA"/>
<stop offset="1" stop-color="#EA6060"/>
</linearGradient>
</defs>
</svg>
