<svg width="24" height="24" viewBox="0 0 24 24" fill="none" xmlns="http://www.w3.org/2000/svg">
<path d="M15.3308 22H8.75118C8.51616 21.9996 8.29087 21.9061 8.12471 21.7399C7.95856 21.5737 7.86511 21.3483 7.86484 21.1133V20.3033C7.86484 20.2149 7.89996 20.1301 7.96247 20.0676C8.02499 20.0051 8.10977 19.97 8.19818 19.97H8.19884L15.8848 19.9843C15.9731 19.9845 16.0577 20.0197 16.1201 20.0822C16.1825 20.1447 16.2175 20.2294 16.2175 20.3177V21.1137C16.2172 21.3487 16.1236 21.574 15.9574 21.7401C15.7912 21.9063 15.5659 21.9997 15.3308 22V22ZM17.0988 9.61066C18.7852 9.61066 20.1518 8.74066 20.1518 7.66666C20.1518 6.59266 18.7852 5.72266 17.0988 5.72266C15.5328 5.72266 14.2435 6.17432 14.0678 7.14166L4.59684 6.87132C4.42003 6.87132 4.25046 6.94156 4.12544 7.06659C4.00041 7.19161 3.93018 7.36118 3.93018 7.53799C3.93018 7.7148 4.00041 7.88437 4.12544 8.00939C4.25046 8.13442 4.42003 8.20466 4.59684 8.20466L14.0695 8.19499C14.2478 9.16066 15.5348 9.61066 17.0988 9.61066V9.61066Z" fill="#D0CFCE"/>
<path d="M15.7773 20.651H15.7697L8.19768 20.6367C7.26778 20.6354 6.36691 20.3127 5.64768 19.7233C4.50559 18.7865 3.58591 17.6076 2.95507 16.272C2.32424 14.9363 1.99803 13.4771 2.00001 12C2.00001 11.9116 2.03513 11.8268 2.09764 11.7643C2.16015 11.7018 2.24494 11.6667 2.33334 11.6667H21.6667C21.7551 11.6667 21.8399 11.7018 21.9024 11.7643C21.9649 11.8268 22 11.9116 22 12C22.0023 13.4832 21.6736 14.9483 21.0377 16.2883C20.4019 17.6284 19.475 18.8097 18.3247 19.746C17.6049 20.3317 16.7053 20.6513 15.7773 20.651Z" fill="white"/>
<path d="M21.6664 11.6667H17.8648C17.9532 11.6667 18.038 11.7018 18.1005 11.7643C18.163 11.8268 18.1981 11.9116 18.1981 12C18.2004 13.4832 17.8717 14.9483 17.2358 16.2883C16.6 17.6284 15.6731 18.8097 14.5228 19.746C13.8451 20.2962 13.0071 20.6115 12.1348 20.6443L15.7694 20.651H15.7771C16.705 20.6513 17.6047 20.3317 18.3244 19.746C19.4748 18.8097 20.4017 17.6284 21.0375 16.2883C21.6733 14.9483 22.0021 13.4832 21.9998 12C21.9998 11.9116 21.9646 11.8268 21.9021 11.7643C21.8396 11.7018 21.7548 11.6667 21.6664 11.6667Z" fill="#D0CFCE"/>
<path d="M8.1985 20.3033C7.34564 20.303 6.51922 20.0072 5.85983 19.4663C4.75611 18.5604 3.86728 17.4207 3.25746 16.1295C2.64765 14.8384 2.33207 13.4279 2.3335 12H21.6668C21.6682 13.4337 21.3501 14.8496 20.7356 16.1449C20.121 17.4402 19.2255 18.5823 18.1142 19.488C17.4524 20.0274 16.6242 20.3207 15.7705 20.318L9.91417 20.3067" stroke="black" stroke-width="0.5" stroke-linecap="round" stroke-linejoin="round"/>
<path d="M8.19866 20.3033V21.1137C8.19866 21.1863 8.21297 21.2582 8.24076 21.3253C8.26855 21.3924 8.30928 21.4533 8.36063 21.5047C8.41198 21.556 8.47295 21.5968 8.54004 21.6246C8.60713 21.6524 8.67904 21.6667 8.75166 21.6667H15.3317C15.4783 21.6666 15.6188 21.6083 15.7225 21.5046C15.8261 21.4009 15.8843 21.2603 15.8843 21.1137V20.3177M17.0993 9.61066C18.7857 9.61066 20.1523 8.74066 20.1523 7.66666C20.1523 6.59266 18.7857 5.72266 17.0993 5.72266C15.5333 5.72266 14.244 6.17432 14.0683 7.14166L4.59733 6.87132C4.42052 6.87132 4.25095 6.94156 4.12593 7.06659C4.0009 7.19161 3.93066 7.36118 3.93066 7.53799C3.93066 7.7148 4.0009 7.88437 4.12593 8.00939C4.25095 8.13442 4.42052 8.20466 4.59733 8.20466L14.07 8.19499C14.2483 9.16066 15.5353 9.61066 17.0993 9.61066V9.61066Z" stroke="black" stroke-width="0.5" stroke-linecap="round" stroke-linejoin="round"/>
</svg>
