<svg width="24" height="24" viewBox="0 0 24 24" fill="none" xmlns="http://www.w3.org/2000/svg">
<path d="M12 20C16.4183 20 20 16.4183 20 12C20 7.58172 16.4183 4 12 4C7.58172 4 4 7.58172 4 12C4 16.4183 7.58172 20 12 20Z" fill="#FCEA2B"/>
<path d="M3.77293 11.5533C3.76339 11.5732 3.74843 11.59 3.72976 11.6018C3.71109 11.6135 3.68949 11.6197 3.66743 11.6197C3.64537 11.6197 3.62376 11.6135 3.6051 11.6018C3.58643 11.59 3.57147 11.5732 3.56193 11.5533C3.48053 11.3844 3.36483 11.2344 3.22221 11.1127C3.07958 10.991 2.91316 10.9004 2.73356 10.8466C2.55396 10.7928 2.36512 10.777 2.17909 10.8002C1.99305 10.8235 1.8139 10.8852 1.65306 10.9816C1.49222 11.0779 1.35323 11.2067 1.24493 11.3598C1.13664 11.5128 1.06143 11.6867 1.02409 11.8705C0.98676 12.0542 0.988123 12.2437 1.0281 12.4269C1.06807 12.61 1.14578 12.7829 1.25626 12.9343L3.66726 16.0257L6.06426 12.953L6.1416 12.839C6.23708 12.6828 6.29979 12.5089 6.32591 12.3277C6.35203 12.1465 6.34101 11.9619 6.29354 11.7852C6.24606 11.6084 6.16311 11.4431 6.04974 11.2994C5.93637 11.1557 5.79494 11.0366 5.63407 10.9492C5.4732 10.8619 5.29624 10.8082 5.11396 10.7915C4.93169 10.7747 4.74791 10.7952 4.57381 10.8517C4.39971 10.9082 4.23892 10.9996 4.10124 11.1202C3.96356 11.2408 3.85185 11.3882 3.77293 11.5533V11.5533ZM16.1063 2.55332C16.0967 2.57321 16.0818 2.59 16.0631 2.60175C16.0444 2.6135 16.0228 2.61974 16.0008 2.61974C15.9787 2.61974 15.9571 2.6135 15.9384 2.60175C15.9198 2.59 15.9048 2.57321 15.8953 2.55332C15.8139 2.38443 15.6982 2.23436 15.5555 2.11267C15.4129 1.99098 15.2465 1.90035 15.0669 1.84656C14.8873 1.79276 14.6985 1.77699 14.5124 1.80024C14.3264 1.82348 14.1472 1.88524 13.9864 1.98158C13.8256 2.07792 13.6866 2.20671 13.5783 2.35976C13.47 2.5128 13.3948 2.68673 13.3574 2.87046C13.3201 3.05419 13.3215 3.24368 13.3614 3.42685C13.4014 3.61002 13.4791 3.78285 13.5896 3.93432L16.0006 7.02566L18.3976 3.95299L18.4749 3.83899C18.5709 3.68283 18.634 3.50875 18.6604 3.32739C18.6869 3.14603 18.6761 2.96119 18.6288 2.78413C18.5814 2.60707 18.4985 2.44151 18.3851 2.29756C18.2716 2.1536 18.13 2.03426 17.969 1.94682C17.8079 1.85938 17.6307 1.80567 17.4482 1.78897C17.2657 1.77227 17.0817 1.79292 16.9074 1.84968C16.7331 1.90643 16.5722 1.99809 16.4346 2.11907C16.2969 2.24004 16.1853 2.3878 16.1066 2.55332H16.1063ZM18.7729 17.5533C18.7634 17.5732 18.7484 17.59 18.7298 17.6018C18.7111 17.6135 18.6895 17.6197 18.6674 17.6197C18.6454 17.6197 18.6238 17.6135 18.6051 17.6018C18.5864 17.59 18.5715 17.5732 18.5619 17.5533C18.4805 17.3844 18.3648 17.2344 18.2222 17.1127C18.0796 16.991 17.9132 16.9004 17.7336 16.8466C17.554 16.7928 17.3651 16.777 17.1791 16.8002C16.9931 16.8235 16.8139 16.8852 16.6531 16.9816C16.4922 17.0779 16.3532 17.2067 16.2449 17.3598C16.1366 17.5128 16.0614 17.6867 16.0241 17.8705C15.9868 18.0542 15.9881 18.2437 16.0281 18.4269C16.0681 18.61 16.1458 18.7829 16.2563 18.9343L18.6673 22.0257L21.0643 18.953L21.1416 18.839C21.2371 18.6828 21.2998 18.5089 21.3259 18.3277C21.352 18.1465 21.341 17.9619 21.2935 17.7852C21.2461 17.6084 21.1631 17.4431 21.0497 17.2994C20.9364 17.1557 20.7949 17.0366 20.6341 16.9492C20.4732 16.8619 20.2962 16.8082 20.114 16.7915C19.9317 16.7747 19.7479 16.7952 19.5738 16.8517C19.3997 16.9082 19.2389 16.9996 19.1012 17.1202C18.9636 17.2408 18.8519 17.3882 18.7729 17.5533Z" fill="#FFA7C0"/>
<path d="M15.2717 14.9347C14.3506 15.6941 13.1939 16.1094 12.0001 16.1094C10.8062 16.1094 9.64957 15.6941 8.7284 14.9347M14.2694 19.3253C13.5344 19.5524 12.7693 19.6674 12.0001 19.6667C9.3534 19.6667 7.0204 18.326 5.64273 16.2867M17.9161 7.12334C19.0502 8.49514 19.6695 10.2201 19.6667 12C19.6667 13.201 19.3904 14.3377 18.8981 15.35M4.91073 9.07568C6.0604 6.29234 8.8014 4.33334 12.0001 4.33334M17.3467 16.7887C17.1073 16.7887 16.8722 16.8525 16.6656 16.9733C16.4589 17.0942 16.2881 17.2678 16.1707 17.4764C16.0532 17.6851 15.9934 17.9212 15.9972 18.1605C16.0011 18.3999 16.0686 18.634 16.1927 18.8387L16.2701 18.953L18.6671 22.0257L21.0781 18.934C21.1889 18.7826 21.267 18.6097 21.3073 18.4263C21.3475 18.243 21.3491 18.0533 21.3119 17.8693C21.2747 17.6854 21.1995 17.5112 21.0912 17.3579C20.9828 17.2047 20.8437 17.0757 20.6827 16.9793C20.5216 16.8828 20.3423 16.821 20.156 16.7979C19.9697 16.7747 19.7807 16.7906 19.6009 16.8446C19.4212 16.8987 19.2547 16.9896 19.1121 17.1116C18.9695 17.2337 18.8539 17.3841 18.7727 17.5533C18.7632 17.5732 18.7482 17.59 18.7296 17.6018C18.7109 17.6135 18.6893 17.6198 18.6672 17.6198C18.6452 17.6198 18.6236 17.6135 18.6049 17.6018C18.5862 17.59 18.5713 17.5732 18.5617 17.5533C18.4526 17.3238 18.2804 17.13 18.0652 16.9946C17.8501 16.8592 17.6009 16.7878 17.3467 16.7887V16.7887ZM2.34673 10.7887C2.10732 10.7887 1.87224 10.8525 1.66557 10.9733C1.45891 11.0942 1.2881 11.2678 1.17066 11.4764C1.05322 11.6851 0.993369 11.9212 0.997248 12.1605C1.00113 12.3999 1.06859 12.634 1.19273 12.8387L1.27006 12.953L3.66706 16.0257L6.07806 12.934C6.18895 12.7826 6.26702 12.6097 6.30728 12.4263C6.34755 12.243 6.34912 12.0533 6.31191 11.8693C6.2747 11.6854 6.19951 11.5112 6.09116 11.3579C5.98281 11.2047 5.84368 11.0757 5.68266 10.9793C5.52163 10.8828 5.34226 10.821 5.156 10.7979C4.96975 10.7747 4.7807 10.7906 4.60095 10.8446C4.4212 10.8987 4.2547 10.9896 4.11209 11.1116C3.96948 11.2337 3.8539 11.3841 3.77273 11.5533C3.76319 11.5732 3.74823 11.59 3.72956 11.6018C3.7109 11.6135 3.68929 11.6198 3.66723 11.6198C3.64517 11.6198 3.62356 11.6135 3.6049 11.6018C3.58623 11.59 3.57127 11.5732 3.56173 11.5533C3.45256 11.3238 3.28037 11.13 3.06524 10.9946C2.85011 10.8592 2.60092 10.7878 2.34673 10.7887V10.7887ZM14.6801 1.78868C14.4407 1.78874 14.2056 1.85246 13.9989 1.97332C13.7922 2.09418 13.6214 2.26782 13.504 2.47644C13.3865 2.68507 13.3267 2.92117 13.3306 3.16055C13.3345 3.39993 13.4019 3.63397 13.5261 3.83868L13.6034 3.95301L16.0004 7.02568L18.4114 3.93401C18.5223 3.78257 18.6003 3.60967 18.6406 3.42634C18.6809 3.24302 18.6825 3.05331 18.6452 2.86934C18.608 2.68538 18.5328 2.5112 18.4245 2.35793C18.3161 2.20467 18.177 2.0757 18.016 1.97927C17.855 1.88283 17.6756 1.82105 17.4893 1.79787C17.3031 1.77469 17.114 1.79062 16.9343 1.84465C16.7545 1.89868 16.588 1.98961 16.4454 2.11164C16.3028 2.23367 16.1872 2.38411 16.1061 2.55334C16.0965 2.57323 16.0816 2.59002 16.0629 2.60177C16.0442 2.61353 16.0226 2.61976 16.0006 2.61976C15.9785 2.61976 15.9569 2.61353 15.9382 2.60177C15.9196 2.59002 15.9046 2.57323 15.8951 2.55334C15.7859 2.3238 15.6137 2.13002 15.3986 1.99463C15.1834 1.85924 14.9342 1.78781 14.6801 1.78868V1.78868Z" stroke="black" stroke-width="0.5" stroke-linecap="round" stroke-linejoin="round"/>
<path d="M10.5649 10.8013C10.4411 10.5228 10.2393 10.2862 9.98375 10.1201C9.72821 9.95398 9.42998 9.86557 9.12521 9.86557C8.82044 9.86557 8.52222 9.95398 8.26668 10.1201C8.01115 10.2862 7.80928 10.5228 7.68555 10.8013M16.3149 10.8013C16.1911 10.5228 15.9893 10.2862 15.7337 10.1201C15.4782 9.95398 15.18 9.86557 14.8752 9.86557C14.5704 9.86557 14.2722 9.95398 14.0167 10.1201C13.7611 10.2862 13.5593 10.5228 13.4355 10.8013" stroke="black" stroke-width="0.5" stroke-miterlimit="10" stroke-linecap="round"/>
</svg>
