<svg width="24" height="24" viewBox="0 0 24 24" fill="none" xmlns="http://www.w3.org/2000/svg">
<path d="M21.8467 17.0516H2.14049C1.88217 17.0516 1.63443 16.9714 1.45178 16.8288C1.26912 16.6861 1.1665 16.4926 1.1665 16.2908V6.93675C1.1665 6.77909 1.24668 6.6279 1.38941 6.51642C1.53213 6.40494 1.7257 6.34232 1.92755 6.34232H22.0525C22.2595 6.34232 22.4581 6.40656 22.6045 6.52091C22.7509 6.63527 22.8332 6.79036 22.8332 6.95208V16.281C22.8332 16.3822 22.8077 16.4824 22.7581 16.5759C22.7085 16.6694 22.6358 16.7543 22.5442 16.8259C22.4526 16.8974 22.3439 16.9542 22.2242 16.9929C22.1045 17.0317 21.9762 17.0516 21.8467 17.0516V17.0516Z" fill="white"/>
<path d="M14.1663 11.3663C14.1664 11.0426 14.0809 10.7282 13.9233 10.4728C13.7657 10.2175 13.5451 10.0357 13.2963 9.95639C13.0476 9.87707 12.785 9.90472 12.5501 10.035C12.3152 10.1652 12.1215 10.3906 11.9997 10.6754C11.8778 10.3906 11.6841 10.1652 11.4492 10.035C11.2144 9.90472 10.9518 9.87707 10.703 9.95639C10.4543 10.0357 10.2336 10.2175 10.076 10.4728C9.91844 10.7282 9.83291 11.0426 9.83301 11.3663C9.83301 11.7116 9.92896 12.0283 10.0884 12.2778L10.088 12.2783L11.9997 15.2667L13.9112 12.2783L13.9108 12.2778C14.0763 12.0199 14.1665 11.6981 14.1663 11.3663V11.3663Z" fill="#EA5A47"/>
<path d="M21.4525 17.6577H2.53463C2.28665 17.6577 2.04882 17.5766 1.87347 17.4321C1.69812 17.2876 1.59961 17.0917 1.59961 16.8874V7.41646C1.59961 7.25684 1.67658 7.10376 1.8136 6.99089C1.95061 6.87802 2.13644 6.81461 2.33021 6.81461H21.6501C21.8489 6.81461 22.0395 6.87965 22.18 6.99543C22.3206 7.11122 22.3996 7.26825 22.3996 7.43199V16.8775C22.3996 16.98 22.3751 17.0814 22.3275 17.1761C22.2799 17.2708 22.2101 17.3568 22.1222 17.4292C22.0342 17.5016 21.9298 17.5591 21.8149 17.5983C21.7 17.6375 21.5769 17.6577 21.4525 17.6577V17.6577Z" stroke="black" stroke-width="0.5" stroke-miterlimit="10" stroke-linecap="round" stroke-linejoin="round"/>
<path d="M1.9248 7.08234L6.79979 11.366M22.0747 7.08234L17.1998 11.366" stroke="black" stroke-width="0.5" stroke-miterlimit="10" stroke-linecap="round"/>
<path d="M15.5954 11.7816C15.5955 11.4308 15.4536 11.09 15.1921 10.8132C14.9305 10.5364 14.5643 10.3394 14.1515 10.2534C13.7387 10.1675 13.3029 10.1974 12.9131 10.3386C12.5233 10.4798 12.2018 10.724 11.9996 11.0327C11.7974 10.724 11.4759 10.4798 11.0861 10.3386C10.6963 10.1974 10.2605 10.1675 9.84766 10.2534C9.43485 10.3394 9.06866 10.5364 8.80713 10.8132C8.54559 11.09 8.40365 11.4308 8.40381 11.7816C8.40381 12.1558 8.56306 12.4991 8.82761 12.7695L8.82696 12.77L11.9996 16.009L15.1719 12.77L15.1713 12.7695C15.446 12.49 15.5957 12.1412 15.5954 11.7816V11.7816Z" stroke="black" stroke-width="0.5" stroke-miterlimit="10" stroke-linejoin="round"/>
</svg>
